<?xml version="1.0" encoding="UTF-8" standalone="no"?><svg xmlns="http://www.w3.org/2000/svg" xmlns:xlink="http://www.w3.org/1999/xlink" clip-rule="evenodd" stroke-miterlimit="10" viewBox="0 0 862 8"><desc>SVG generated by Keynote</desc><defs></defs><g transform="matrix(1.00, 0.00, -0.00, -1.00, 0.0, 8.0)"><path d="M 5.0 2.1 C 4.1 2.1 2.8 2.2 2.7 3.6 C 2.5 4.9 3.5 5.9 4.9 5.9 C 6.2 5.9 5.8 5.2 9.0 5.2 C 10.2 5.2 10.3 2.8 9.1 2.8 C 6.2 2.8 6.6 2.1 5.0 2.1 C 5.0 2.1 5.0 2.1 5.0 2.1 Z M 856.7 5.9 C 858.4 5.9 859.0 5.3 859.1 4.0 C 859.1 2.7 858.2 2.0 856.7 2.0 C 855.3 2.0 855.3 2.8 852.9 2.8 C 851.6 2.7 851.8 5.2 852.9 5.2 C 855.5 5.2 855.1 5.9 856.7 5.9 C 856.7 5.9 856.7 5.9 856.7 5.9 Z M 9.2 2.8 C 8.0 2.8 8.0 5.2 9.3 5.2 C 10.8 5.2 14.0 4.8 14.8 4.8 C 15.6 4.9 18.0 5.4 18.7 5.4 C 19.4 5.4 22.9 4.6 24.4 4.8 C 25.9 5.0 26.4 4.9 27.4 4.9 C 28.5 4.9 30.1 4.8 31.1 4.7 C 32.1 4.7 33.0 5.3 34.3 5.2 C 35.6 5.0 36.3 5.2 37.2 5.2 C 38.6 5.2 38.5 2.8 37.2 2.8 C 35.9 2.8 35.0 2.6 33.9 2.7 C 32.8 2.7 31.9 3.0 30.8 2.7 C 29.8 2.5 27.8 2.7 26.5 2.9 C 25.3 3.1 23.9 3.0 22.9 2.9 C 21.0 2.7 16.2 3.1 15.5 2.9 C 14.9 2.7 12.7 2.9 11.9 2.9 C 11.2 2.9 10.8 2.8 9.2 2.8 C 9.2 2.8 9.2 2.8 9.2 2.8 Z M 65.2 5.2 C 66.5 5.2 66.8 2.8 65.2 2.8 C 63.7 2.8 60.9 3.0 60.0 3.0 C 59.2 2.9 55.7 2.8 55.0 2.8 C 54.3 2.8 51.7 3.1 50.2 2.9 C 48.7 2.7 47.2 3.1 46.1 3.0 C 44.9 2.9 44.2 3.0 43.2 3.0 C 42.2 3.1 40.7 2.6 39.8 2.8 C 39.0 3.0 38.5 2.8 37.4 2.8 C 36.2 2.8 36.2 5.2 37.3 5.2 C 38.4 5.2 39.3 5.2 40.4 5.1 C 41.5 5.1 42.9 5.0 44.0 5.0 C 45.1 5.0 46.7 5.3 48.0 5.2 C 49.2 5.0 51.0 5.0 51.8 4.9 C 52.7 4.9 54.6 5.0 55.4 4.8 C 56.5 4.7 58.4 4.9 59.0 5.1 C 59.7 5.3 60.2 5.0 61.7 5.1 C 62.5 5.1 63.9 5.2 65.2 5.2 C 65.2 5.2 65.2 5.2 65.2 5.2 Z M 65.6 5.2 C 67.1 5.2 69.6 4.9 70.2 4.9 C 70.8 4.9 72.8 5.1 73.8 5.0 C 74.7 5.0 75.0 4.8 76.6 4.7 C 78.6 4.7 80.0 4.9 80.0 4.9 C 80.3 5.0 81.3 5.3 82.7 5.2 C 84.5 5.1 85.0 5.3 85.8 5.2 C 87.2 4.9 87.3 5.2 88.4 5.2 C 89.4 5.1 90.1 5.2 90.9 5.1 C 91.8 4.9 92.5 5.2 93.3 5.2 C 94.7 5.2 94.6 2.8 93.3 2.8 C 92.5 2.8 91.9 3.0 91.1 3.0 C 90.3 3.0 89.6 3.0 88.8 2.9 C 88.0 2.8 86.3 2.9 85.0 2.9 C 83.7 2.8 81.6 2.7 80.1 2.7 C 78.5 2.8 77.6 3.4 74.5 3.0 C 73.6 2.9 71.6 3.0 70.8 3.0 C 69.4 3.0 66.7 2.8 65.5 2.8 C 64.1 2.8 64.1 5.2 65.6 5.2 C 65.6 5.2 65.6 5.2 65.6 5.2 Z M 121.5 5.2 C 122.8 5.2 123.0 2.8 121.5 2.8 C 119.9 2.8 117.1 3.0 116.3 3.0 C 115.4 2.9 112.0 2.8 111.2 2.8 C 110.5 2.8 107.9 3.1 106.4 2.9 C 104.9 2.7 103.4 3.1 102.4 3.0 C 101.1 2.9 100.4 3.0 99.4 3.0 C 98.4 3.1 96.9 2.6 96.1 2.8 C 95.2 3.0 94.8 2.8 93.6 2.8 C 92.4 2.8 92.4 5.2 93.5 5.2 C 94.6 5.2 95.6 5.2 96.7 5.1 C 97.8 5.1 99.1 5.0 100.3 5.0 C 101.4 5.0 103.0 5.3 104.2 5.2 C 105.5 5.0 107.3 5.0 108.0 4.9 C 108.9 4.9 110.8 5.0 111.7 4.8 C 112.7 4.7 114.6 4.9 115.3 5.1 C 116.0 5.3 116.4 5.0 117.9 5.1 C 118.8 5.1 120.2 5.2 121.5 5.2 C 121.5 5.2 121.5 5.2 121.5 5.2 Z M 121.9 5.2 C 123.4 5.2 125.8 4.9 126.4 4.9 C 127.0 4.9 129.0 5.1 130.0 5.0 C 130.9 5.0 131.3 4.8 132.9 4.7 C 134.9 4.7 136.2 4.9 136.3 4.9 C 136.6 5.0 137.5 5.3 138.9 5.2 C 140.7 5.1 141.2 5.3 142.0 5.2 C 143.4 4.9 143.5 5.2 144.6 5.2 C 145.7 5.1 146.3 5.2 147.2 5.1 C 148.1 4.9 148.7 5.2 149.6 5.2 C 150.9 5.2 150.8 2.8 149.5 2.8 C 148.8 2.8 148.1 3.0 147.3 3.0 C 146.5 3.0 145.8 3.0 145.0 2.9 C 144.2 2.8 142.6 2.9 141.3 2.9 C 140.0 2.8 137.8 2.7 136.3 2.7 C 134.8 2.8 133.9 3.4 130.8 3.0 C 129.8 2.9 127.8 3.0 127.0 3.0 C 125.6 3.0 122.9 2.8 121.7 2.8 C 120.3 2.8 120.4 5.2 121.9 5.2 C 121.9 5.2 121.9 5.2 121.9 5.2 Z M 177.7 5.2 C 179.0 5.2 179.2 2.8 177.7 2.8 C 176.2 2.8 173.3 3.0 172.5 3.0 C 171.7 2.9 168.2 2.8 167.5 2.8 C 166.8 2.8 164.1 3.1 162.6 2.9 C 161.1 2.7 159.7 3.1 158.6 3.0 C 157.3 2.9 156.6 3.0 155.7 3.0 C 154.7 3.1 153.1 2.6 152.3 2.8 C 151.5 3.0 151.0 2.8 149.8 2.8 C 148.7 2.8 148.7 5.2 149.8 5.2 C 150.9 5.2 151.8 5.2 152.9 5.1 C 154.0 5.1 155.3 5.0 156.5 5.0 C 157.6 5.0 159.2 5.3 160.4 5.2 C 161.7 5.0 163.5 5.0 164.2 4.9 C 165.1 4.9 167.1 5.0 167.9 4.8 C 169.0 4.7 170.8 4.9 171.5 5.1 C 172.2 5.3 172.7 5.0 174.1 5.1 C 175.0 5.1 176.4 5.2 177.7 5.2 C 177.7 5.2 177.7 5.2 177.7 5.2 Z M 177.9 2.8 C 176.7 2.8 176.7 5.2 178.1 5.2 C 179.5 5.2 182.7 4.8 183.5 4.8 C 184.4 4.9 186.7 5.4 187.4 5.4 C 188.1 5.4 191.6 4.6 193.2 4.8 C 194.7 5.0 195.1 4.9 196.1 4.9 C 197.2 4.9 198.8 4.8 199.8 4.7 C 200.8 4.7 201.7 5.3 203.0 5.2 C 204.3 5.0 205.0 5.2 205.9 5.2 C 207.3 5.2 207.2 2.8 205.9 2.8 C 204.6 2.8 203.7 2.6 202.6 2.7 C 201.5 2.7 200.6 3.0 199.6 2.7 C 198.5 2.5 196.5 2.7 195.3 2.9 C 194.0 3.1 192.6 3.0 191.6 2.9 C 189.7 2.7 184.9 3.1 184.3 2.9 C 183.6 2.7 181.4 2.9 180.6 2.9 C 179.9 2.9 179.5 2.8 177.9 2.8 C 177.9 2.8 177.9 2.8 177.9 2.8 Z M 206.2 5.2 C 207.7 5.2 210.2 4.9 210.8 4.9 C 211.4 4.9 213.4 5.1 214.4 5.0 C 215.3 5.0 215.6 4.8 217.2 4.7 C 219.2 4.7 220.5 4.9 220.6 4.9 C 220.9 5.0 221.9 5.3 223.2 5.2 C 225.0 5.1 225.6 5.3 226.4 5.2 C 227.8 4.9 227.9 5.2 229.0 5.2 C 230.0 5.1 230.7 5.2 231.5 5.1 C 232.4 4.9 233.1 5.2 233.9 5.2 C 235.3 5.2 235.2 2.8 233.9 2.8 C 233.1 2.8 232.5 3.0 231.7 3.0 C 230.9 3.0 230.2 3.0 229.4 2.9 C 228.5 2.8 226.9 2.9 225.6 2.9 C 224.3 2.8 222.1 2.7 220.6 2.7 C 219.1 2.8 218.2 3.4 215.1 3.0 C 214.1 2.9 212.2 3.0 211.4 3.0 C 210.0 3.0 207.2 2.8 206.1 2.8 C 204.7 2.8 204.7 5.2 206.2 5.2 C 206.2 5.2 206.2 5.2 206.2 5.2 Z M 262.1 5.2 C 263.4 5.2 263.6 2.8 262.1 2.8 C 260.5 2.8 257.7 3.0 256.9 3.0 C 256.0 2.9 252.6 2.8 251.8 2.8 C 251.1 2.8 248.5 3.1 247.0 2.9 C 245.5 2.7 244.0 3.1 243.0 3.0 C 241.7 2.9 241.0 3.0 240.0 3.0 C 239.0 3.1 237.5 2.6 236.7 2.8 C 235.8 3.0 235.4 2.8 234.2 2.8 C 233.0 2.8 233.0 5.2 234.1 5.2 C 235.2 5.2 236.2 5.2 237.3 5.1 C 238.4 5.1 239.7 5.0 240.9 5.0 C 242.0 5.0 243.6 5.3 244.8 5.2 C 246.1 5.0 247.9 5.0 248.6 4.9 C 249.5 4.9 251.4 5.0 252.3 4.8 C 253.3 4.7 255.2 4.9 255.9 5.1 C 256.5 5.3 257.0 5.0 258.5 5.1 C 259.4 5.1 260.8 5.2 262.1 5.2 C 262.1 5.2 262.1 5.2 262.1 5.2 Z M 262.5 5.2 C 264.0 5.2 266.4 4.9 267.0 4.9 C 267.6 4.9 269.6 5.1 270.6 5.0 C 271.5 5.0 271.9 4.8 273.5 4.7 C 275.5 4.7 276.8 4.9 276.9 4.9 C 277.2 5.0 278.1 5.3 279.5 5.2 C 281.3 5.1 281.8 5.3 282.6 5.2 C 284.0 4.9 284.1 5.2 285.2 5.2 C 286.2 5.1 286.9 5.2 287.7 5.1 C 288.7 4.9 289.3 5.2 290.2 5.2 C 291.5 5.2 291.4 2.8 290.1 2.8 C 289.4 2.8 288.7 3.0 287.9 3.0 C 287.1 3.0 286.4 3.0 285.6 2.9 C 284.8 2.8 283.2 2.9 281.9 2.9 C 280.5 2.8 278.4 2.7 276.9 2.7 C 275.4 2.8 274.4 3.4 271.4 3.0 C 270.4 2.9 268.4 3.0 267.6 3.0 C 266.2 3.0 263.5 2.8 262.3 2.8 C 260.9 2.8 261.0 5.2 262.5 5.2 C 262.5 5.2 262.5 5.2 262.5 5.2 Z M 318.3 5.2 C 319.6 5.2 319.8 2.8 318.3 2.8 C 316.8 2.8 313.9 3.0 313.1 3.0 C 312.3 2.9 308.8 2.8 308.1 2.8 C 307.3 2.8 304.7 3.1 303.2 2.9 C 301.7 2.7 300.3 3.1 299.2 3.0 C 297.9 2.9 297.2 3.0 296.2 3.0 C 295.3 3.1 293.7 2.6 292.9 2.8 C 292.1 3.0 291.6 2.8 290.4 2.8 C 289.3 2.8 289.3 5.2 290.4 5.2 C 291.5 5.2 292.4 5.2 293.5 5.1 C 294.6 5.1 295.9 5.0 297.1 5.0 C 298.2 5.0 299.8 5.3 301.0 5.2 C 302.3 5.0 304.1 5.0 304.8 4.9 C 305.7 4.9 307.7 5.0 308.5 4.8 C 309.6 4.7 311.4 4.9 312.1 5.1 C 312.8 5.3 313.2 5.0 314.7 5.1 C 315.6 5.1 317.0 5.2 318.3 5.2 C 318.3 5.2 318.3 5.2 318.3 5.2 Z M 318.7 5.2 C 320.2 5.2 322.7 4.9 323.3 4.9 C 323.9 4.9 325.9 5.1 326.8 5.0 C 327.8 5.0 328.1 4.8 329.7 4.7 C 331.7 4.7 333.0 4.9 333.1 4.9 C 333.4 5.0 334.4 5.3 335.7 5.2 C 337.5 5.1 338.1 5.3 338.9 5.2 C 340.2 4.9 340.4 5.2 341.4 5.2 C 342.5 5.1 343.1 5.2 344.0 5.1 C 344.9 4.9 345.6 5.2 346.4 5.2 C 347.8 5.2 347.6 2.8 346.4 2.8 C 345.6 2.8 344.9 3.0 344.1 3.0 C 343.3 3.0 342.6 3.0 341.8 2.9 C 341.0 2.8 339.4 2.9 338.1 2.9 C 336.8 2.8 334.6 2.7 333.1 2.7 C 331.6 2.8 330.7 3.4 327.6 3.0 C 326.6 2.9 324.6 3.0 323.8 3.0 C 322.4 3.0 319.7 2.8 318.6 2.8 C 317.2 2.8 317.2 5.2 318.7 5.2 C 318.7 5.2 318.7 5.2 318.7 5.2 Z M 374.5 5.2 C 375.8 5.2 376.1 2.8 374.5 2.8 C 373.0 2.8 370.2 3.0 369.3 3.0 C 368.5 2.9 365.0 2.8 364.3 2.8 C 363.6 2.8 361.0 3.1 359.5 2.9 C 358.0 2.7 356.5 3.1 355.5 3.0 C 354.2 2.9 353.5 3.0 352.5 3.0 C 351.5 3.1 350.0 2.6 349.1 2.8 C 348.3 3.0 347.8 2.8 346.7 2.8 C 345.5 2.8 345.5 5.2 346.6 5.2 C 347.7 5.2 348.7 5.2 349.7 5.1 C 350.8 5.1 352.2 5.0 353.4 5.0 C 354.4 5.0 356.0 5.3 357.3 5.2 C 358.5 5.0 360.3 5.0 361.1 4.9 C 362.0 4.9 363.9 5.0 364.8 4.8 C 365.8 4.7 367.7 4.9 368.3 5.1 C 369.0 5.3 369.5 5.0 371.0 5.1 C 371.8 5.1 373.2 5.2 374.5 5.2 C 374.5 5.2 374.5 5.2 374.5 5.2 Z M 374.7 2.8 C 373.5 2.8 373.5 5.2 374.9 5.2 C 376.3 5.2 379.5 4.8 380.4 4.8 C 381.2 4.9 383.5 5.4 384.2 5.4 C 385.0 5.4 388.5 4.6 390.0 4.8 C 391.5 5.0 391.9 4.9 393.0 4.9 C 394.0 4.9 395.7 4.8 396.6 4.7 C 397.6 4.7 398.5 5.3 399.8 5.2 C 401.1 5.0 401.8 5.2 402.7 5.2 C 404.1 5.2 404.1 2.8 402.7 2.8 C 401.4 2.8 400.6 2.6 399.5 2.7 C 398.4 2.7 397.4 3.0 396.4 2.7 C 395.3 2.5 393.3 2.7 392.1 2.9 C 390.8 3.1 389.5 3.0 388.5 2.9 C 386.5 2.7 381.8 3.1 381.1 2.9 C 380.4 2.7 378.3 2.9 377.5 2.9 C 376.7 2.9 376.3 2.8 374.7 2.8 C 374.7 2.8 374.7 2.8 374.7 2.8 Z M 403.1 5.2 C 404.6 5.2 407.0 4.9 407.6 4.9 C 408.2 4.9 410.2 5.1 411.2 5.0 C 412.1 5.0 412.5 4.8 414.1 4.7 C 416.1 4.7 417.4 4.9 417.5 4.9 C 417.8 5.0 418.7 5.3 420.1 5.2 C 421.9 5.1 422.4 5.3 423.2 5.2 C 424.6 4.9 424.7 5.2 425.8 5.2 C 426.8 5.1 427.5 5.2 428.3 5.1 C 429.3 4.9 429.9 5.2 430.8 5.2 C 432.1 5.2 432.0 2.8 430.7 2.8 C 430.0 2.8 429.3 3.0 428.5 3.0 C 427.7 3.0 427.0 3.0 426.2 2.9 C 425.4 2.8 423.7 2.9 422.4 2.9 C 421.1 2.8 419.0 2.7 417.5 2.7 C 416.0 2.8 415.0 3.4 412.0 3.0 C 411.0 2.9 409.0 3.0 408.2 3.0 C 406.8 3.0 404.1 2.8 402.9 2.8 C 401.5 2.8 401.5 5.2 403.1 5.2 C 403.1 5.2 403.1 5.2 403.1 5.2 Z M 458.9 5.2 C 460.2 5.2 460.4 2.8 458.9 2.8 C 457.4 2.8 454.5 3.0 453.7 3.0 C 452.9 2.9 449.4 2.8 448.7 2.8 C 447.9 2.8 445.3 3.1 443.8 2.9 C 442.3 2.7 440.8 3.1 439.8 3.0 C 438.5 2.9 437.8 3.0 436.8 3.0 C 435.9 3.1 434.3 2.6 433.5 2.8 C 432.7 3.0 432.2 2.8 431.0 2.8 C 429.9 2.8 429.9 5.2 431.0 5.2 C 432.1 5.2 433.0 5.2 434.1 5.1 C 435.2 5.1 436.5 5.0 437.7 5.0 C 438.8 5.0 440.4 5.3 441.6 5.2 C 442.9 5.0 444.7 5.0 445.4 4.9 C 446.3 4.9 448.3 5.0 449.1 4.8 C 450.2 4.7 452.0 4.9 452.7 5.1 C 453.4 5.3 453.8 5.0 455.3 5.1 C 456.2 5.1 457.6 5.2 458.9 5.2 C 458.9 5.2 458.9 5.2 458.9 5.2 Z M 459.3 5.2 C 460.8 5.2 463.3 4.9 463.9 4.9 C 464.5 4.9 466.5 5.1 467.4 5.0 C 468.4 5.0 468.7 4.8 470.3 4.7 C 472.3 4.7 473.6 4.9 473.7 4.9 C 474.0 5.0 475.0 5.3 476.3 5.2 C 478.1 5.1 478.7 5.3 479.5 5.2 C 480.8 4.9 481.0 5.2 482.0 5.2 C 483.1 5.1 483.7 5.2 484.6 5.1 C 485.5 4.9 486.2 5.2 487.0 5.2 C 488.4 5.2 488.2 2.8 487.0 2.8 C 486.2 2.8 485.5 3.0 484.7 3.0 C 483.9 3.0 483.2 3.0 482.4 2.9 C 481.6 2.8 480.0 2.9 478.7 2.9 C 477.4 2.8 475.2 2.7 473.7 2.7 C 472.2 2.8 471.3 3.4 468.2 3.0 C 467.2 2.9 465.2 3.0 464.4 3.0 C 463.0 3.0 460.3 2.8 459.1 2.8 C 457.7 2.8 457.8 5.2 459.3 5.2 C 459.3 5.2 459.3 5.2 459.3 5.2 Z M 487.2 2.8 C 486.0 2.8 486.0 5.2 487.4 5.2 C 488.8 5.2 492.0 4.8 492.8 4.8 C 493.7 4.9 496.0 5.4 496.7 5.4 C 497.4 5.4 501.0 4.6 502.5 4.8 C 504.0 5.0 504.4 4.9 505.4 4.9 C 506.5 4.9 508.1 4.8 509.1 4.7 C 510.1 4.7 511.0 5.3 512.3 5.2 C 513.6 5.0 514.3 5.2 515.2 5.2 C 516.6 5.2 516.5 2.8 515.2 2.8 C 513.9 2.8 513.0 2.6 511.9 2.7 C 510.8 2.7 509.9 3.0 508.9 2.7 C 507.8 2.5 505.8 2.7 504.6 2.9 C 503.3 3.1 501.9 3.0 501.0 2.9 C 499.0 2.7 494.2 3.1 493.6 2.9 C 492.9 2.7 490.7 2.9 490.0 2.9 C 489.2 2.9 488.8 2.8 487.2 2.8 C 487.2 2.8 487.2 2.8 487.2 2.8 Z M 515.5 5.2 C 517.0 5.2 519.5 4.9 520.1 4.9 C 520.7 4.9 522.7 5.1 523.7 5.0 C 524.6 5.0 524.9 4.8 526.5 4.7 C 528.5 4.7 529.9 4.9 530.0 4.9 C 530.2 5.0 531.2 5.3 532.6 5.2 C 534.4 5.1 534.9 5.3 535.7 5.2 C 537.1 4.9 537.2 5.2 538.3 5.2 C 539.3 5.1 540.0 5.2 540.8 5.1 C 541.7 4.9 542.4 5.2 543.3 5.2 C 544.6 5.2 544.5 2.8 543.2 2.8 C 542.4 2.8 541.8 3.0 541.0 3.0 C 540.2 3.0 539.5 3.0 538.7 2.9 C 537.9 2.8 536.2 2.9 534.9 2.9 C 533.6 2.8 531.5 2.7 530.0 2.7 C 528.4 2.8 527.5 3.4 524.4 3.0 C 523.5 2.9 521.5 3.0 520.7 3.0 C 519.3 3.0 516.6 2.8 515.4 2.8 C 514.0 2.8 514.0 5.2 515.5 5.2 C 515.5 5.2 515.5 5.2 515.5 5.2 Z M 543.4 2.8 C 542.3 2.8 542.2 5.2 543.6 5.2 C 545.1 5.2 548.2 4.8 549.1 4.8 C 549.9 4.9 552.2 5.4 552.9 5.4 C 553.7 5.4 557.2 4.6 558.7 4.8 C 560.2 5.0 560.6 4.9 561.7 4.9 C 562.7 4.9 564.4 4.8 565.4 4.7 C 566.4 4.7 567.2 5.3 568.5 5.2 C 569.8 5.0 570.5 5.2 571.4 5.2 C 572.9 5.2 572.8 2.8 571.4 2.8 C 570.1 2.8 569.3 2.6 568.2 2.7 C 567.1 2.7 566.1 3.0 565.1 2.7 C 564.1 2.5 562.1 2.7 560.8 2.9 C 559.6 3.1 558.2 3.0 557.2 2.9 C 555.2 2.7 550.5 3.1 549.8 2.9 C 549.1 2.7 547.0 2.9 546.2 2.9 C 545.4 2.9 545.0 2.8 543.4 2.8 C 543.4 2.8 543.4 2.8 543.4 2.8 Z M 571.8 5.2 C 573.3 5.2 575.7 4.9 576.3 4.9 C 576.9 4.9 578.9 5.1 579.9 5.0 C 580.9 5.0 581.2 4.8 582.8 4.7 C 584.8 4.7 586.1 4.9 586.2 4.9 C 586.5 5.0 587.4 5.3 588.8 5.2 C 590.6 5.1 591.1 5.3 591.9 5.2 C 593.3 4.9 593.4 5.2 594.5 5.2 C 595.6 5.1 596.2 5.2 597.1 5.1 C 598.0 4.9 598.6 5.2 599.5 5.2 C 600.8 5.2 600.7 2.8 599.4 2.8 C 598.7 2.8 598.0 3.0 597.2 3.0 C 596.4 3.0 595.7 3.0 594.9 2.9 C 594.1 2.8 592.5 2.9 591.2 2.9 C 589.9 2.8 587.7 2.7 586.2 2.7 C 584.7 2.8 583.8 3.4 580.7 3.0 C 579.7 2.9 577.7 3.0 576.9 3.0 C 575.5 3.0 572.8 2.8 571.6 2.8 C 570.2 2.8 570.3 5.2 571.8 5.2 C 571.8 5.2 571.8 5.2 571.8 5.2 Z M 599.7 2.8 C 598.5 2.8 598.5 5.2 599.8 5.2 C 601.3 5.2 604.5 4.8 605.3 4.8 C 606.1 4.9 608.4 5.4 609.2 5.4 C 609.9 5.4 613.4 4.6 614.9 4.8 C 616.4 5.0 616.9 4.9 617.9 4.9 C 619.0 4.9 620.6 4.8 621.6 4.7 C 622.6 4.7 623.5 5.3 624.8 5.2 C 626.1 5.0 626.8 5.2 627.7 5.2 C 629.1 5.2 629.0 2.8 627.7 2.8 C 626.4 2.8 625.5 2.6 624.4 2.7 C 623.3 2.7 622.4 3.0 621.3 2.7 C 620.3 2.5 618.3 2.7 617.0 2.9 C 615.8 3.1 614.4 3.0 613.4 2.9 C 611.5 2.7 606.7 3.1 606.0 2.9 C 605.4 2.7 603.2 2.9 602.4 2.9 C 601.7 2.9 601.3 2.8 599.7 2.8 C 599.7 2.8 599.7 2.8 599.7 2.8 Z M 655.7 5.2 C 657.0 5.2 657.3 2.8 655.7 2.8 C 654.2 2.8 651.4 3.0 650.5 3.0 C 649.7 2.9 646.2 2.8 645.5 2.8 C 644.8 2.8 642.2 3.1 640.7 2.9 C 639.2 2.7 637.7 3.1 636.6 3.0 C 635.4 2.9 634.7 3.0 633.7 3.0 C 632.7 3.1 631.2 2.6 630.3 2.8 C 629.5 3.0 629.0 2.8 627.9 2.8 C 626.7 2.8 626.7 5.2 627.8 5.2 C 628.9 5.2 629.8 5.2 630.9 5.1 C 632.0 5.1 633.4 5.0 634.5 5.0 C 635.6 5.0 637.2 5.3 638.5 5.2 C 639.7 5.0 641.5 5.0 642.3 4.9 C 643.2 4.9 645.1 5.0 645.9 4.8 C 647.0 4.7 648.9 4.9 649.5 5.1 C 650.2 5.3 650.7 5.0 652.1 5.1 C 653.0 5.1 654.4 5.2 655.7 5.2 C 655.7 5.2 655.7 5.2 655.7 5.2 Z M 656.1 5.2 C 657.6 5.2 660.1 4.9 660.7 4.9 C 661.3 4.9 663.3 5.1 664.3 5.0 C 665.2 5.0 665.5 4.8 667.1 4.7 C 669.1 4.7 670.5 4.9 670.5 4.9 C 670.8 5.0 671.8 5.3 673.1 5.2 C 675.0 5.1 675.5 5.3 676.3 5.2 C 677.7 4.9 677.8 5.2 678.9 5.2 C 679.9 5.1 680.6 5.2 681.4 5.1 C 682.3 4.9 683.0 5.2 683.8 5.2 C 685.2 5.2 685.1 2.8 683.8 2.8 C 683.0 2.8 682.4 3.0 681.6 3.0 C 680.8 3.0 680.1 3.0 679.3 2.9 C 678.5 2.8 676.8 2.9 675.5 2.9 C 674.2 2.8 672.1 2.7 670.5 2.7 C 669.0 2.8 668.1 3.4 665.0 3.0 C 664.0 2.9 662.1 3.0 661.3 3.0 C 659.9 3.0 657.1 2.8 656.0 2.8 C 654.6 2.8 654.6 5.2 656.1 5.2 C 656.1 5.2 656.1 5.2 656.1 5.2 Z M 684.0 2.8 C 682.8 2.8 682.8 5.2 684.2 5.2 C 685.7 5.2 688.8 4.8 689.7 4.8 C 690.5 4.9 692.8 5.4 693.5 5.4 C 694.3 5.4 697.8 4.6 699.3 4.8 C 700.8 5.0 701.2 4.9 702.3 4.9 C 703.3 4.9 705.0 4.8 706.0 4.7 C 706.9 4.7 707.8 5.3 709.1 5.2 C 710.4 5.0 711.1 5.2 712.0 5.2 C 713.4 5.2 713.4 2.8 712.0 2.8 C 710.7 2.8 709.9 2.6 708.8 2.7 C 707.7 2.7 706.7 3.0 705.7 2.7 C 704.7 2.5 702.6 2.7 701.4 2.9 C 700.1 3.1 698.8 3.0 697.8 2.9 C 695.8 2.7 691.1 3.1 690.4 2.9 C 689.7 2.7 687.6 2.9 686.8 2.9 C 686.0 2.9 685.6 2.8 684.0 2.8 C 684.0 2.8 684.0 2.8 684.0 2.8 Z M 740.1 5.2 C 741.4 5.2 741.6 2.8 740.1 2.8 C 738.5 2.8 735.7 3.0 734.9 3.0 C 734.0 2.9 730.6 2.8 729.9 2.8 C 729.1 2.8 726.5 3.1 725.0 2.9 C 723.5 2.7 722.0 3.1 721.0 3.0 C 719.7 2.9 719.0 3.0 718.0 3.0 C 717.0 3.1 715.5 2.6 714.7 2.8 C 713.9 3.0 713.4 2.8 712.2 2.8 C 711.0 2.8 711.1 5.2 712.2 5.2 C 713.3 5.2 714.2 5.2 715.3 5.1 C 716.4 5.1 717.7 5.0 718.9 5.0 C 720.0 5.0 721.6 5.3 722.8 5.2 C 724.1 5.0 725.9 5.0 726.6 4.9 C 727.5 4.9 729.5 5.0 730.3 4.8 C 731.4 4.7 733.2 4.9 733.9 5.1 C 734.6 5.3 735.0 5.0 736.5 5.1 C 737.4 5.1 738.8 5.2 740.1 5.2 C 740.1 5.2 740.1 5.2 740.1 5.2 Z M 740.3 2.8 C 739.1 2.8 739.1 5.2 740.4 5.2 C 741.9 5.2 745.1 4.8 745.9 4.8 C 746.7 4.9 749.0 5.4 749.8 5.4 C 750.5 5.4 754.0 4.6 755.5 4.8 C 757.0 5.0 757.5 4.9 758.5 4.9 C 759.6 4.9 761.2 4.8 762.2 4.7 C 763.2 4.7 764.1 5.3 765.4 5.2 C 766.7 5.0 767.4 5.2 768.3 5.2 C 769.7 5.2 769.6 2.8 768.3 2.8 C 767.0 2.8 766.1 2.6 765.0 2.7 C 763.9 2.7 763.0 3.0 761.9 2.7 C 760.9 2.5 758.9 2.7 757.6 2.9 C 756.4 3.1 755.0 3.0 754.0 2.9 C 752.0 2.7 747.3 3.1 746.6 2.9 C 746.0 2.7 743.8 2.9 743.0 2.9 C 742.3 2.9 741.8 2.8 740.3 2.8 C 740.3 2.8 740.3 2.8 740.3 2.8 Z M 768.6 5.2 C 770.1 5.2 772.6 4.9 773.2 4.9 C 773.8 4.9 775.8 5.1 776.7 5.0 C 777.7 5.0 778.0 4.8 779.6 4.7 C 781.6 4.7 782.9 4.9 783.0 4.9 C 783.3 5.0 784.3 5.3 785.6 5.2 C 787.4 5.1 788.0 5.3 788.8 5.2 C 790.1 4.9 790.3 5.2 791.3 5.2 C 792.4 5.1 793.0 5.2 793.9 5.1 C 794.8 4.9 795.5 5.2 796.3 5.2 C 797.7 5.2 797.5 2.8 796.3 2.8 C 795.5 2.8 794.8 3.0 794.0 3.0 C 793.2 3.0 792.5 3.0 791.7 2.9 C 790.9 2.8 789.3 2.9 788.0 2.9 C 786.7 2.8 784.5 2.7 783.0 2.7 C 781.5 2.8 780.6 3.4 777.5 3.0 C 776.5 2.9 774.5 3.0 773.7 3.0 C 772.3 3.0 769.6 2.8 768.5 2.8 C 767.1 2.8 767.1 5.2 768.6 5.2 C 768.6 5.2 768.6 5.2 768.6 5.2 Z M 824.4 5.2 C 825.7 5.2 826.0 2.8 824.4 2.8 C 822.9 2.8 820.1 3.0 819.2 3.0 C 818.4 2.9 814.9 2.8 814.2 2.8 C 813.5 2.8 810.9 3.1 809.4 2.9 C 807.9 2.7 806.4 3.1 805.4 3.0 C 804.1 2.9 803.4 3.0 802.4 3.0 C 801.4 3.1 799.9 2.6 799.0 2.8 C 798.2 3.0 797.7 2.8 796.6 2.8 C 795.4 2.8 795.4 5.2 796.5 5.2 C 797.6 5.2 798.6 5.2 799.6 5.1 C 800.7 5.1 802.1 5.0 803.3 5.0 C 804.3 5.0 805.9 5.3 807.2 5.2 C 808.4 5.0 810.2 5.0 811.0 4.9 C 811.9 4.9 813.8 5.0 814.7 4.8 C 815.7 4.7 817.6 4.9 818.2 5.1 C 818.9 5.3 819.4 5.0 820.9 5.1 C 821.7 5.1 823.1 5.2 824.4 5.2 C 824.4 5.2 824.4 5.2 824.4 5.2 Z M 824.8 5.2 C 826.3 5.2 828.8 4.9 829.4 4.9 C 830.0 4.9 832.0 5.1 833.0 5.0 C 833.9 5.0 834.2 4.8 835.8 4.7 C 837.9 4.7 839.2 4.9 839.3 4.9 C 839.5 5.0 840.5 5.3 841.9 5.2 C 843.7 5.1 844.2 5.3 845.0 5.2 C 846.4 4.9 846.5 5.2 847.6 5.2 C 848.6 5.1 849.3 5.2 850.1 5.1 C 851.0 4.9 851.7 5.2 852.6 5.2 C 853.9 5.2 853.8 2.8 852.5 2.8 C 851.8 2.8 851.1 3.0 850.3 3.0 C 849.5 3.0 848.8 3.0 848.0 2.9 C 847.2 2.8 845.5 2.9 844.2 2.9 C 842.9 2.8 840.8 2.7 839.3 2.7 C 837.8 2.8 836.8 3.4 833.7 3.0 C 832.8 2.9 830.8 3.0 830.0 3.0 C 828.6 3.0 825.9 2.8 824.7 2.8 C 823.3 2.8 823.3 5.2 824.8 5.2 C 824.8 5.2 824.8 5.2 824.8 5.2 Z M 855.6 4.0 C 855.6 4.0 855.8 4.0 857.1 4.0 C 858.5 4.0 859.5 4.0 859.5 4.0 C 859.5 4.0 858.8 4.0 858.8 4.0 C 858.8 4.0 856.3 4.0 856.3 4.0 C 856.3 4.0 855.6 4.0 855.6 4.0 C 855.6 4.0 855.6 4.0 855.6 4.0 Z M 859.5 4.0 C 859.5 4.0 859.5 4.0 859.5 4.0 C 859.5 4.0 859.4 4.0 859.4 4.0 C 859.4 4.0 859.4 4.0 859.4 4.0 C 859.4 4.0 859.4 4.0 859.4 4.0 C 859.4 4.0 859.4 4.0 859.4 4.0 C 859.4 4.0 859.4 4.0 859.4 4.0 C 859.4 4.0 859.4 4.0 859.4 4.0 C 859.4 4.0 859.4 4.0 859.4 4.0 C 859.4 4.0 859.4 4.0 859.4 4.0 C 859.4 4.0 857.6 2.1 857.6 2.1 C 857.6 2.1 857.6 2.1 857.6 2.1 C 857.6 2.1 857.6 2.1 857.6 2.1 C 857.6 2.1 857.6 2.1 857.6 2.1 C 857.6 2.1 857.6 2.1 857.6 2.1 C 857.6 2.1 857.6 2.1 857.6 2.1 C 857.6 2.1 857.6 2.1 857.6 2.1 C 857.6 2.1 857.6 2.1 857.6 2.1 C 857.6 2.1 857.6 2.1 857.6 2.1 C 857.6 2.2 857.6 2.2 857.6 2.2 C 857.6 2.3 857.6 2.4 857.6 2.5 C 857.6 2.8 857.6 3.3 857.6 4.0 C 857.6 4.7 857.6 5.1 857.6 5.5 C 857.6 5.6 857.6 5.8 857.6 5.8 C 857.6 5.8 857.6 5.8 857.6 5.8 C 857.6 5.9 857.6 5.9 857.6 5.9 C 857.6 5.9 857.6 5.9 857.6 5.9 C 857.6 5.9 857.6 5.9 857.6 5.9 C 857.6 5.9 857.6 5.9 857.6 5.9 C 857.6 5.9 857.6 5.9 857.6 5.9 C 857.6 5.9 855.7 4.0 855.7 4.0 C 855.7 4.0 855.7 4.0 855.7 4.0 C 855.7 4.0 855.7 4.0 855.7 4.0 C 855.7 4.0 855.7 4.0 855.7 4.0 C 855.7 4.0 855.7 4.0 855.7 4.0 C 855.7 4.0 855.7 4.0 855.7 4.0 C 855.7 4.0 855.7 4.0 855.7 4.0 C 855.7 4.0 855.7 4.0 855.7 4.0 C 855.7 4.0 855.7 4.0 855.7 4.0 C 855.7 4.0 855.7 4.0 855.7 4.0 C 855.7 4.0 855.7 4.0 855.7 4.0 C 855.6 4.0 855.6 4.0 855.6 4.0 C 855.6 4.0 855.6 4.0 855.6 4.0 C 855.6 4.0 856.3 4.0 856.3 4.0 C 856.3 4.0 858.8 4.0 858.8 4.0 C 858.8 4.0 859.5 4.0 859.5 4.0 C 859.5 4.0 859.5 4.0 859.5 4.0 Z M 856.9 5.9 C 857.8 5.9 859.0 5.8 859.2 4.4 C 859.3 3.1 858.3 2.1 857.0 2.1 C 855.6 2.1 856.0 2.8 852.8 2.8 C 851.6 2.8 851.6 5.2 852.8 5.2 C 855.6 5.2 855.2 5.9 856.9 5.9 C 856.9 5.9 856.9 5.9 856.9 5.9 Z M 5.1 2.1 C 3.5 2.1 2.8 2.7 2.8 4.0 C 2.7 5.3 3.6 6.0 5.1 6.0 C 6.6 6.0 6.5 5.2 9.0 5.2 C 10.3 5.3 10.1 2.8 9.0 2.8 C 6.4 2.8 6.8 2.1 5.1 2.1 C 5.1 2.1 5.1 2.1 5.1 2.1 Z M 824.7 2.8 C 823.4 2.8 823.2 5.2 824.7 5.2 C 826.3 5.2 829.1 5.0 829.9 5.0 C 830.8 5.1 834.2 5.2 835.0 5.2 C 835.7 5.2 838.3 4.9 839.8 5.1 C 841.3 5.3 842.8 4.9 843.8 5.0 C 845.1 5.1 845.8 5.0 846.8 5.0 C 847.8 4.9 849.3 5.4 850.1 5.2 C 851.0 5.0 851.4 5.2 852.6 5.2 C 853.8 5.2 853.8 2.8 852.7 2.8 C 851.6 2.8 850.6 2.8 849.5 2.9 C 848.4 2.9 847.1 3.0 845.9 3.0 C 844.9 3.0 843.2 2.7 842.0 2.8 C 840.7 3.0 838.9 3.0 838.2 3.1 C 837.3 3.1 835.4 3.0 834.5 3.2 C 833.5 3.3 831.6 3.1 830.9 2.9 C 830.3 2.7 829.8 3.0 828.3 2.9 C 827.4 2.9 826.1 2.8 824.7 2.8 C 824.7 2.8 824.7 2.8 824.7 2.8 Z M 824.6 5.2 C 825.7 5.2 825.8 2.8 824.4 2.8 C 822.9 2.8 819.8 3.2 818.9 3.2 C 818.1 3.1 815.8 2.7 815.0 2.7 C 814.3 2.7 810.8 3.4 809.3 3.2 C 807.8 3.0 807.4 3.1 806.3 3.1 C 805.3 3.1 803.6 3.2 802.6 3.3 C 801.6 3.3 800.8 2.7 799.5 2.8 C 798.2 3.0 797.5 2.8 796.6 2.8 C 795.1 2.8 795.2 5.2 796.6 5.2 C 797.8 5.2 798.7 5.4 799.8 5.3 C 800.9 5.3 801.9 5.0 802.9 5.3 C 803.9 5.5 805.9 5.3 807.2 5.1 C 808.4 4.9 809.8 5.0 810.8 5.1 C 812.8 5.3 817.5 4.9 818.2 5.1 C 818.9 5.3 821.0 5.1 821.8 5.1 C 822.6 5.1 823.0 5.2 824.6 5.2 C 824.6 5.2 824.6 5.2 824.6 5.2 Z M 796.2 2.8 C 794.7 2.8 792.3 3.1 791.7 3.1 C 791.1 3.1 789.0 2.9 788.1 3.0 C 787.1 3.0 786.8 3.2 785.2 3.3 C 783.2 3.3 781.9 3.1 781.8 3.1 C 781.5 3.0 780.5 2.7 779.2 2.8 C 777.4 2.9 776.9 2.7 776.1 2.8 C 774.7 3.1 774.5 2.8 773.5 2.8 C 772.4 2.9 771.8 2.8 770.9 2.9 C 770.0 3.1 769.3 2.8 768.5 2.8 C 767.2 2.8 767.3 5.2 768.5 5.2 C 769.3 5.2 770.0 5.0 770.8 5.0 C 771.6 5.0 772.3 5.0 773.1 5.1 C 773.9 5.2 775.5 5.1 776.8 5.1 C 778.1 5.2 780.3 5.3 781.8 5.3 C 783.3 5.2 784.2 4.6 787.3 5.0 C 788.3 5.1 790.3 5.0 791.1 5.0 C 792.5 5.0 795.2 5.2 796.4 5.2 C 797.8 5.2 797.7 2.8 796.2 2.8 C 796.2 2.8 796.2 2.8 796.2 2.8 Z M 740.4 2.8 C 739.1 2.8 738.9 5.2 740.4 5.2 C 741.9 5.2 744.8 5.0 745.6 5.0 C 746.4 5.1 749.9 5.2 750.6 5.2 C 751.3 5.2 753.9 4.9 755.4 5.1 C 757.0 5.3 758.4 4.9 759.5 5.0 C 760.8 5.1 761.4 5.0 762.4 5.0 C 763.4 4.9 764.9 5.4 765.8 5.2 C 766.6 5.0 767.1 5.2 768.2 5.2 C 769.4 5.2 769.4 2.8 768.3 2.8 C 767.2 2.8 766.3 2.8 765.2 2.9 C 764.1 2.9 762.8 3.0 761.6 3.0 C 760.5 3.0 758.9 2.7 757.6 2.8 C 756.4 3.0 754.6 3.0 753.9 3.1 C 752.9 3.1 751.0 3.0 750.2 3.2 C 749.1 3.3 747.3 3.1 746.6 2.9 C 745.9 2.7 745.4 3.0 744.0 2.9 C 743.1 2.9 741.7 2.8 740.4 2.8 C 740.4 2.8 740.4 2.8 740.4 2.8 Z M 740.0 2.8 C 738.5 2.8 736.0 3.1 735.4 3.1 C 734.8 3.1 732.8 2.9 731.9 3.0 C 730.9 3.0 730.6 3.2 729.0 3.3 C 727.0 3.3 725.7 3.1 725.6 3.1 C 725.3 3.0 724.3 2.7 723.0 2.8 C 721.2 2.9 720.6 2.7 719.8 2.8 C 718.4 3.1 718.3 2.8 717.3 2.8 C 716.2 2.9 715.5 2.8 714.7 2.9 C 713.8 3.1 713.1 2.8 712.3 2.8 C 710.9 2.8 711.0 5.2 712.3 5.2 C 713.1 5.2 713.8 5.0 714.6 5.0 C 715.4 5.0 716.1 5.0 716.9 5.1 C 717.7 5.2 719.3 5.1 720.6 5.1 C 721.9 5.2 724.1 5.3 725.6 5.3 C 727.1 5.2 728.0 4.6 731.1 5.0 C 732.1 5.1 734.0 5.0 734.8 5.0 C 736.2 5.0 739.0 5.2 740.1 5.2 C 741.5 5.2 741.5 2.8 740.0 2.8 C 740.0 2.8 740.0 2.8 740.0 2.8 Z M 684.2 2.8 C 682.9 2.8 682.6 5.2 684.2 5.2 C 685.7 5.2 688.5 5.0 689.3 5.0 C 690.2 5.1 693.6 5.2 694.4 5.2 C 695.1 5.2 697.7 4.9 699.2 5.1 C 700.7 5.3 702.2 4.9 703.2 5.0 C 704.5 5.1 705.2 5.0 706.2 5.0 C 707.2 4.9 708.7 5.4 709.5 5.2 C 710.4 5.0 710.8 5.2 712.0 5.2 C 713.2 5.2 713.2 2.8 712.1 2.8 C 711.0 2.8 710.0 2.8 708.9 2.9 C 707.8 2.9 706.5 3.0 705.3 3.0 C 704.3 3.0 702.7 2.7 701.4 2.8 C 700.2 3.0 698.3 3.0 697.6 3.1 C 696.7 3.1 694.8 3.0 693.9 3.2 C 692.9 3.3 691.0 3.1 690.3 2.9 C 689.7 2.7 689.2 3.0 687.7 2.9 C 686.8 2.9 685.5 2.8 684.2 2.8 C 684.2 2.8 684.2 2.8 684.2 2.8 Z M 684.0 5.2 C 685.1 5.2 685.2 2.8 683.8 2.8 C 682.3 2.8 679.2 3.2 678.3 3.2 C 677.5 3.1 675.2 2.7 674.5 2.7 C 673.7 2.7 670.2 3.4 668.7 3.2 C 667.2 3.0 666.8 3.1 665.7 3.1 C 664.7 3.1 663.0 3.2 662.0 3.3 C 661.0 3.3 660.2 2.7 658.9 2.8 C 657.6 3.0 656.9 2.8 656.0 2.8 C 654.5 2.8 654.6 5.2 656.0 5.2 C 657.3 5.2 658.1 5.4 659.2 5.3 C 660.3 5.3 661.3 5.0 662.3 5.3 C 663.3 5.5 665.3 5.3 666.6 5.1 C 667.8 4.9 669.2 5.0 670.2 5.1 C 672.2 5.3 676.9 4.9 677.6 5.1 C 678.3 5.3 680.4 5.1 681.2 5.1 C 682.0 5.1 682.4 5.2 684.0 5.2 C 684.0 5.2 684.0 5.2 684.0 5.2 Z M 655.6 2.8 C 654.1 2.8 651.7 3.1 651.1 3.1 C 650.5 3.1 648.5 2.9 647.5 3.0 C 646.5 3.0 646.2 3.2 644.6 3.3 C 642.6 3.3 641.3 3.1 641.2 3.1 C 640.9 3.0 640.0 2.7 638.6 2.8 C 636.8 2.9 636.3 2.7 635.5 2.8 C 634.1 3.1 633.9 2.8 632.9 2.8 C 631.8 2.9 631.2 2.8 630.3 2.9 C 629.4 3.1 628.8 2.8 627.9 2.8 C 626.6 2.8 626.7 5.2 628.0 5.2 C 628.7 5.2 629.4 5.0 630.2 5.0 C 631.0 5.0 631.7 5.0 632.5 5.1 C 633.3 5.2 634.9 5.1 636.2 5.1 C 637.5 5.2 639.7 5.3 641.2 5.3 C 642.7 5.2 643.6 4.6 646.7 5.0 C 647.7 5.1 649.7 5.0 650.5 5.0 C 651.9 5.0 654.6 5.2 655.8 5.2 C 657.2 5.2 657.1 2.8 655.6 2.8 C 655.6 2.8 655.6 2.8 655.6 2.8 Z M 627.7 5.2 C 628.9 5.2 628.9 2.8 627.6 2.8 C 626.1 2.8 622.9 3.2 622.1 3.2 C 621.3 3.1 618.9 2.7 618.2 2.7 C 617.5 2.7 614.0 3.4 612.5 3.2 C 611.0 3.0 610.5 3.1 609.5 3.1 C 608.4 3.1 606.8 3.2 605.8 3.3 C 604.8 3.3 603.9 2.7 602.6 2.8 C 601.3 3.0 600.6 2.8 599.7 2.8 C 598.3 2.8 598.4 5.2 599.7 5.2 C 601.0 5.2 601.9 5.4 603.0 5.3 C 604.1 5.3 605.0 5.0 606.1 5.3 C 607.1 5.5 609.1 5.3 610.4 5.1 C 611.6 4.9 613.0 5.0 614.0 5.1 C 615.9 5.3 620.7 4.9 621.4 5.1 C 622.0 5.3 624.2 5.1 625.0 5.1 C 625.7 5.1 626.1 5.2 627.7 5.2 C 627.7 5.2 627.7 5.2 627.7 5.2 Z M 571.7 2.8 C 570.4 2.8 570.1 5.2 571.7 5.2 C 573.2 5.2 576.0 5.0 576.9 5.0 C 577.7 5.1 581.2 5.2 581.9 5.2 C 582.6 5.2 585.2 4.9 586.7 5.1 C 588.2 5.3 589.7 4.9 590.8 5.0 C 592.0 5.1 592.7 5.0 593.7 5.0 C 594.7 4.9 596.2 5.4 597.1 5.2 C 597.9 5.0 598.4 5.2 599.5 5.2 C 600.7 5.2 600.7 2.8 599.6 2.8 C 598.5 2.8 597.6 2.8 596.5 2.9 C 595.4 2.9 594.0 3.0 592.9 3.0 C 591.8 3.0 590.2 2.7 588.9 2.8 C 587.7 3.0 585.9 3.0 585.1 3.1 C 584.2 3.1 582.3 3.0 581.5 3.2 C 580.4 3.3 578.5 3.1 577.9 2.9 C 577.2 2.7 576.7 3.0 575.2 2.9 C 574.4 2.9 573.0 2.8 571.7 2.8 C 571.7 2.8 571.7 2.8 571.7 2.8 Z M 571.3 2.8 C 569.8 2.8 567.3 3.1 566.7 3.1 C 566.1 3.1 564.1 2.9 563.1 3.0 C 562.2 3.0 561.9 3.2 560.3 3.3 C 558.3 3.3 556.9 3.1 556.9 3.1 C 556.6 3.0 555.6 2.7 554.2 2.8 C 552.4 2.9 551.9 2.7 551.1 2.8 C 549.7 3.1 549.6 2.8 548.5 2.8 C 547.5 2.9 546.8 2.8 546.0 2.9 C 545.1 3.1 544.4 2.8 543.6 2.8 C 542.2 2.8 542.3 5.2 543.6 5.2 C 544.4 5.2 545.0 5.0 545.8 5.0 C 546.6 5.0 547.3 5.0 548.1 5.1 C 548.9 5.2 550.6 5.1 551.9 5.1 C 553.2 5.2 555.3 5.3 556.8 5.3 C 558.4 5.2 559.3 4.6 562.4 5.0 C 563.4 5.1 565.3 5.0 566.1 5.0 C 567.5 5.0 570.2 5.2 571.4 5.2 C 572.8 5.2 572.8 2.8 571.3 2.8 C 571.3 2.8 571.3 2.8 571.3 2.8 Z M 543.4 5.2 C 544.6 5.2 544.6 2.8 543.2 2.8 C 541.7 2.8 538.6 3.2 537.7 3.2 C 536.9 3.1 534.6 2.7 533.9 2.7 C 533.1 2.7 529.6 3.4 528.1 3.2 C 526.6 3.0 526.2 3.1 525.1 3.1 C 524.1 3.1 522.4 3.2 521.4 3.3 C 520.4 3.3 519.6 2.7 518.3 2.8 C 517.0 3.0 516.3 2.8 515.4 2.8 C 513.9 2.8 514.0 5.2 515.4 5.2 C 516.7 5.2 517.5 5.4 518.6 5.3 C 519.7 5.3 520.7 5.0 521.7 5.3 C 522.7 5.5 524.8 5.3 526.0 5.1 C 527.2 4.9 528.6 5.0 529.6 5.1 C 531.6 5.3 536.3 4.9 537.0 5.1 C 537.7 5.3 539.8 5.1 540.6 5.1 C 541.4 5.1 541.8 5.2 543.4 5.2 C 543.4 5.2 543.4 5.2 543.4 5.2 Z M 515.0 2.8 C 513.5 2.8 511.1 3.1 510.5 3.1 C 509.9 3.1 507.9 2.9 506.9 3.0 C 506.0 3.0 505.6 3.2 504.0 3.3 C 502.0 3.3 500.7 3.1 500.6 3.1 C 500.3 3.0 499.4 2.7 498.0 2.8 C 496.2 2.9 495.7 2.7 494.9 2.8 C 493.5 3.1 493.4 2.8 492.3 2.8 C 491.2 2.9 490.6 2.8 489.8 2.9 C 488.8 3.1 488.2 2.8 487.3 2.8 C 486.0 2.8 486.1 5.2 487.4 5.2 C 488.1 5.2 488.8 5.0 489.6 5.0 C 490.4 5.0 491.1 5.0 491.9 5.1 C 492.7 5.2 494.3 5.1 495.6 5.1 C 496.9 5.2 499.1 5.3 500.6 5.3 C 502.1 5.2 503.0 4.6 506.1 5.0 C 507.1 5.1 509.1 5.0 509.9 5.0 C 511.3 5.0 514.0 5.2 515.2 5.2 C 516.6 5.2 516.5 2.8 515.0 2.8 C 515.0 2.8 515.0 2.8 515.0 2.8 Z M 459.2 2.8 C 457.9 2.8 457.7 5.2 459.2 5.2 C 460.7 5.2 463.6 5.0 464.4 5.0 C 465.2 5.1 468.7 5.2 469.4 5.2 C 470.1 5.2 472.8 4.9 474.3 5.1 C 475.8 5.3 477.2 4.9 478.3 5.0 C 479.6 5.1 480.3 5.0 481.2 5.0 C 482.2 4.9 483.8 5.4 484.6 5.2 C 485.4 5.0 485.9 5.2 487.1 5.2 C 488.2 5.2 488.2 2.8 487.1 2.8 C 486.0 2.8 485.1 2.8 484.0 2.9 C 482.9 2.9 481.6 3.0 480.4 3.0 C 479.3 3.0 477.7 2.7 476.5 2.8 C 475.2 3.0 473.4 3.0 472.7 3.1 C 471.8 3.1 469.8 3.0 469.0 3.2 C 467.9 3.3 466.1 3.1 465.4 2.9 C 464.7 2.7 464.2 3.0 462.8 2.9 C 461.9 2.9 460.5 2.8 459.2 2.8 C 459.2 2.8 459.2 2.8 459.2 2.8 Z M 458.8 2.8 C 457.3 2.8 454.8 3.1 454.2 3.1 C 453.6 3.1 451.6 2.9 450.7 3.0 C 449.7 3.0 449.4 3.2 447.8 3.3 C 445.8 3.3 444.5 3.1 444.4 3.1 C 444.1 3.0 443.1 2.7 441.8 2.8 C 440.0 2.9 439.4 2.7 438.6 2.8 C 437.2 3.1 437.1 2.8 436.1 2.8 C 435.0 2.9 434.4 2.8 433.5 2.9 C 432.6 3.1 431.9 2.8 431.1 2.8 C 429.7 2.8 429.9 5.2 431.1 5.2 C 431.9 5.2 432.6 5.0 433.4 5.0 C 434.2 5.0 434.9 5.0 435.7 5.1 C 436.5 5.2 438.1 5.1 439.4 5.1 C 440.7 5.2 442.9 5.3 444.4 5.3 C 445.9 5.2 446.8 4.6 449.9 5.0 C 450.9 5.1 452.8 5.0 453.7 5.0 C 455.1 5.0 457.8 5.2 458.9 5.2 C 460.3 5.2 460.3 2.8 458.8 2.8 C 458.8 2.8 458.8 2.8 458.8 2.8 Z M 430.9 5.2 C 432.1 5.2 432.1 2.8 430.7 2.8 C 429.3 2.8 426.1 3.2 425.3 3.2 C 424.4 3.1 422.1 2.7 421.4 2.7 C 420.7 2.7 417.1 3.4 415.6 3.2 C 414.1 3.0 413.7 3.1 412.6 3.1 C 411.6 3.1 410.0 3.2 409.0 3.3 C 408.0 3.3 407.1 2.7 405.8 2.8 C 404.5 3.0 403.8 2.8 402.9 2.8 C 401.5 2.8 401.6 5.2 402.9 5.2 C 404.2 5.2 405.1 5.4 406.2 5.3 C 407.2 5.3 408.2 5.0 409.2 5.3 C 410.3 5.5 412.3 5.3 413.5 5.1 C 414.8 4.9 416.2 5.0 417.1 5.1 C 419.1 5.3 423.8 4.9 424.5 5.1 C 425.2 5.3 427.4 5.1 428.1 5.1 C 428.9 5.1 429.3 5.2 430.9 5.2 C 430.9 5.2 430.9 5.2 430.9 5.2 Z M 402.6 2.8 C 401.1 2.8 398.6 3.1 398.0 3.1 C 397.4 3.1 395.4 2.9 394.4 3.0 C 393.5 3.0 393.2 3.2 391.6 3.3 C 389.5 3.3 388.2 3.1 388.1 3.1 C 387.9 3.0 386.9 2.7 385.5 2.8 C 383.7 2.9 383.2 2.7 382.4 2.8 C 381.0 3.1 380.9 2.8 379.8 2.8 C 378.8 2.9 378.1 2.8 377.3 2.9 C 376.4 3.1 375.7 2.8 374.8 2.8 C 373.5 2.8 373.6 5.2 374.9 5.2 C 375.6 5.2 376.3 5.0 377.1 5.0 C 377.9 5.0 378.6 5.0 379.4 5.1 C 380.2 5.2 381.9 5.1 383.2 5.1 C 384.5 5.2 386.6 5.3 388.1 5.3 C 389.6 5.2 390.6 4.6 393.6 5.0 C 394.6 5.1 396.6 5.0 397.4 5.0 C 398.8 5.0 401.5 5.2 402.7 5.2 C 404.1 5.2 404.1 2.8 402.6 2.8 C 402.6 2.8 402.6 2.8 402.6 2.8 Z M 374.7 5.2 C 375.8 5.2 375.9 2.8 374.5 2.8 C 373.0 2.8 369.9 3.2 369.0 3.2 C 368.2 3.1 365.9 2.7 365.1 2.7 C 364.4 2.7 360.9 3.4 359.4 3.2 C 357.9 3.0 357.5 3.1 356.4 3.1 C 355.4 3.1 353.7 3.2 352.7 3.3 C 351.7 3.3 350.9 2.7 349.6 2.8 C 348.3 3.0 347.6 2.8 346.7 2.8 C 345.2 2.8 345.3 5.2 346.7 5.2 C 347.9 5.2 348.8 5.4 349.9 5.3 C 351.0 5.3 352.0 5.0 353.0 5.3 C 354.0 5.5 356.0 5.3 357.3 5.1 C 358.5 4.9 359.9 5.0 360.9 5.1 C 362.9 5.3 367.6 4.9 368.3 5.1 C 369.0 5.3 371.1 5.1 371.9 5.1 C 372.7 5.1 373.1 5.2 374.7 5.2 C 374.7 5.2 374.7 5.2 374.7 5.2 Z M 318.6 2.8 C 317.3 2.8 317.1 5.2 318.6 5.2 C 320.1 5.2 323.0 5.0 323.8 5.0 C 324.6 5.1 328.1 5.2 328.8 5.2 C 329.6 5.2 332.2 4.9 333.7 5.1 C 335.2 5.3 336.6 4.9 337.7 5.0 C 339.0 5.1 339.7 5.0 340.7 5.0 C 341.6 4.9 343.2 5.4 344.0 5.2 C 344.8 5.0 345.3 5.2 346.5 5.2 C 347.6 5.2 347.6 2.8 346.5 2.8 C 345.4 2.8 344.5 2.8 343.4 2.9 C 342.3 2.9 341.0 3.0 339.8 3.0 C 338.7 3.0 337.1 2.7 335.9 2.8 C 334.6 3.0 332.8 3.0 332.1 3.1 C 331.2 3.1 329.2 3.0 328.4 3.2 C 327.3 3.3 325.5 3.1 324.8 2.9 C 324.1 2.7 323.7 3.0 322.2 2.9 C 321.3 2.9 319.9 2.8 318.6 2.8 C 318.6 2.8 318.6 2.8 318.6 2.8 Z M 318.2 2.8 C 316.7 2.8 314.2 3.1 313.6 3.1 C 313.0 3.1 311.0 2.9 310.1 3.0 C 309.1 3.0 308.8 3.2 307.2 3.3 C 305.2 3.3 303.9 3.1 303.8 3.1 C 303.5 3.0 302.5 2.7 301.2 2.8 C 299.4 2.9 298.8 2.7 298.0 2.8 C 296.7 3.1 296.5 2.8 295.5 2.8 C 294.4 2.9 293.8 2.8 292.9 2.9 C 292.0 3.1 291.3 2.8 290.5 2.8 C 289.1 2.8 289.3 5.2 290.5 5.2 C 291.3 5.2 292.0 5.0 292.8 5.0 C 293.6 5.0 294.3 5.0 295.1 5.1 C 295.9 5.2 297.5 5.1 298.8 5.1 C 300.1 5.2 302.3 5.3 303.8 5.3 C 305.3 5.2 306.2 4.6 309.3 5.0 C 310.3 5.1 312.3 5.0 313.1 5.0 C 314.5 5.0 317.2 5.2 318.3 5.2 C 319.7 5.2 319.7 2.8 318.2 2.8 C 318.2 2.8 318.2 2.8 318.2 2.8 Z M 290.3 5.2 C 291.5 5.2 291.5 2.8 290.1 2.8 C 288.7 2.8 285.5 3.2 284.7 3.2 C 283.8 3.1 281.5 2.7 280.8 2.7 C 280.1 2.7 276.5 3.4 275.0 3.2 C 273.5 3.0 273.1 3.1 272.1 3.1 C 271.0 3.1 269.4 3.2 268.4 3.3 C 267.4 3.3 266.5 2.7 265.2 2.8 C 263.9 3.0 263.2 2.8 262.3 2.8 C 260.9 2.8 261.0 5.2 262.3 5.2 C 263.6 5.2 264.5 5.4 265.6 5.3 C 266.7 5.3 267.6 5.0 268.6 5.3 C 269.7 5.5 271.7 5.3 272.9 5.1 C 274.2 4.9 275.6 5.0 276.5 5.1 C 278.5 5.3 283.3 4.9 283.9 5.1 C 284.6 5.3 286.8 5.1 287.5 5.1 C 288.3 5.1 288.7 5.2 290.3 5.2 C 290.3 5.2 290.3 5.2 290.3 5.2 Z M 234.2 2.8 C 233.0 2.8 232.7 5.2 234.2 5.2 C 235.8 5.2 238.6 5.0 239.4 5.0 C 240.3 5.1 243.7 5.2 244.5 5.2 C 245.2 5.2 247.8 4.9 249.3 5.1 C 250.8 5.3 252.3 4.9 253.3 5.0 C 254.6 5.1 255.3 5.0 256.3 5.0 C 257.3 4.9 258.8 5.4 259.6 5.2 C 260.5 5.0 260.9 5.2 262.1 5.2 C 263.3 5.2 263.3 2.8 262.2 2.8 C 261.1 2.8 260.1 2.8 259.0 2.9 C 257.9 2.9 256.6 3.0 255.4 3.0 C 254.4 3.0 252.7 2.7 251.5 2.8 C 250.3 3.0 248.4 3.0 247.7 3.1 C 246.8 3.1 244.9 3.0 244.0 3.2 C 243.0 3.3 241.1 3.1 240.4 2.9 C 239.8 2.7 239.3 3.0 237.8 2.9 C 236.9 2.9 235.6 2.8 234.2 2.8 C 234.2 2.8 234.2 2.8 234.2 2.8 Z M 233.8 2.8 C 232.3 2.8 229.9 3.1 229.3 3.1 C 228.7 3.1 226.7 2.9 225.7 3.0 C 224.8 3.0 224.4 3.2 222.8 3.3 C 220.8 3.3 219.5 3.1 219.4 3.1 C 219.1 3.0 218.2 2.7 216.8 2.8 C 215.0 2.9 214.5 2.7 213.7 2.8 C 212.3 3.1 212.2 2.8 211.1 2.8 C 210.1 2.9 209.4 2.8 208.6 2.9 C 207.6 3.1 207.0 2.8 206.1 2.8 C 204.8 2.8 204.9 5.2 206.2 5.2 C 206.9 5.2 207.6 5.0 208.4 5.0 C 209.2 5.0 209.9 5.0 210.7 5.1 C 211.5 5.2 213.2 5.1 214.5 5.1 C 215.8 5.2 217.9 5.3 219.4 5.3 C 220.9 5.2 221.9 4.6 224.9 5.0 C 225.9 5.1 227.9 5.0 228.7 5.0 C 230.1 5.0 232.8 5.2 234.0 5.2 C 235.4 5.2 235.4 2.8 233.8 2.8 C 233.8 2.8 233.8 2.8 233.8 2.8 Z M 178.0 2.8 C 176.7 2.8 176.5 5.2 178.0 5.2 C 179.5 5.2 182.4 5.0 183.2 5.0 C 184.0 5.1 187.5 5.2 188.2 5.2 C 189.0 5.2 191.6 4.9 193.1 5.1 C 194.6 5.3 196.1 4.9 197.1 5.0 C 198.4 5.1 199.1 5.0 200.1 5.0 C 201.0 4.9 202.6 5.4 203.4 5.2 C 204.2 5.0 204.7 5.2 205.9 5.2 C 207.0 5.2 207.0 2.8 205.9 2.8 C 204.8 2.8 203.9 2.8 202.8 2.9 C 201.7 2.9 200.4 3.0 199.2 3.0 C 198.1 3.0 196.5 2.7 195.3 2.8 C 194.0 3.0 192.2 3.0 191.5 3.1 C 190.6 3.1 188.6 3.0 187.8 3.2 C 186.7 3.3 184.9 3.1 184.2 2.9 C 183.5 2.7 183.1 3.0 181.6 2.9 C 180.7 2.9 179.3 2.8 178.0 2.8 C 178.0 2.8 178.0 2.8 178.0 2.8 Z M 177.8 5.2 C 179.0 5.2 179.0 2.8 177.7 2.8 C 176.2 2.8 173.0 3.2 172.2 3.2 C 171.3 3.1 169.0 2.7 168.3 2.7 C 167.6 2.7 164.1 3.4 162.6 3.2 C 161.0 3.0 160.6 3.1 159.6 3.1 C 158.5 3.1 156.9 3.2 155.9 3.3 C 154.9 3.3 154.0 2.7 152.7 2.8 C 151.4 3.0 150.7 2.8 149.8 2.8 C 148.4 2.8 148.5 5.2 149.8 5.2 C 151.1 5.2 152.0 5.4 153.1 5.3 C 154.2 5.3 155.1 5.0 156.2 5.3 C 157.2 5.5 159.2 5.3 160.5 5.1 C 161.7 4.9 163.1 5.0 164.1 5.1 C 166.0 5.3 170.8 4.9 171.5 5.1 C 172.1 5.3 174.3 5.1 175.1 5.1 C 175.8 5.1 176.2 5.2 177.8 5.2 C 177.8 5.2 177.8 5.2 177.8 5.2 Z M 121.8 2.8 C 120.5 2.8 120.2 5.2 121.8 5.2 C 123.3 5.2 126.1 5.0 127.0 5.0 C 127.8 5.1 131.3 5.2 132.0 5.2 C 132.7 5.2 135.3 4.9 136.8 5.1 C 138.3 5.3 139.8 4.9 140.9 5.0 C 142.1 5.1 142.8 5.0 143.8 5.0 C 144.8 4.9 146.3 5.4 147.2 5.2 C 148.0 5.0 148.5 5.2 149.6 5.2 C 150.8 5.2 150.8 2.8 149.7 2.8 C 148.6 2.8 147.7 2.8 146.6 2.9 C 145.5 2.9 144.1 3.0 143.0 3.0 C 141.9 3.0 140.3 2.7 139.0 2.8 C 137.8 3.0 136.0 3.0 135.2 3.1 C 134.3 3.1 132.4 3.0 131.6 3.2 C 130.5 3.3 128.6 3.1 128.0 2.9 C 127.3 2.7 126.8 3.0 125.3 2.9 C 124.5 2.9 123.1 2.8 121.8 2.8 C 121.8 2.8 121.8 2.8 121.8 2.8 Z M 121.4 2.8 C 119.9 2.8 117.4 3.1 116.8 3.1 C 116.2 3.1 114.2 2.9 113.2 3.0 C 112.3 3.0 112.0 3.2 110.4 3.3 C 108.4 3.3 107.0 3.1 107.0 3.1 C 106.7 3.0 105.7 2.7 104.3 2.8 C 102.5 2.9 102.0 2.7 101.2 2.8 C 99.8 3.1 99.7 2.8 98.6 2.8 C 97.6 2.9 96.9 2.8 96.1 2.9 C 95.2 3.1 94.5 2.8 93.6 2.8 C 92.3 2.8 92.4 5.2 93.7 5.2 C 94.5 5.2 95.1 5.0 95.9 5.0 C 96.7 5.0 97.4 5.0 98.2 5.1 C 99.0 5.2 100.7 5.1 102.0 5.1 C 103.3 5.2 105.4 5.3 106.9 5.3 C 108.5 5.2 109.4 4.6 112.5 5.0 C 113.4 5.1 115.4 5.0 116.2 5.0 C 117.6 5.0 120.3 5.2 121.5 5.2 C 122.9 5.2 122.9 2.8 121.4 2.8 C 121.4 2.8 121.4 2.8 121.4 2.8 Z M 93.5 5.2 C 94.6 5.2 94.7 2.8 93.3 2.8 C 91.8 2.8 88.7 3.2 87.8 3.2 C 87.0 3.1 84.7 2.7 84.0 2.7 C 83.2 2.7 79.7 3.4 78.2 3.2 C 76.7 3.0 76.3 3.1 75.2 3.1 C 74.2 3.1 72.5 3.2 71.5 3.3 C 70.5 3.3 69.7 2.7 68.4 2.8 C 67.1 3.0 66.4 2.8 65.5 2.8 C 64.0 2.8 64.1 5.2 65.5 5.2 C 66.8 5.2 67.6 5.4 68.7 5.3 C 69.8 5.3 70.8 5.0 71.8 5.3 C 72.8 5.5 74.8 5.3 76.1 5.1 C 77.3 4.9 78.7 5.0 79.7 5.1 C 81.7 5.3 86.4 4.9 87.1 5.1 C 87.8 5.3 89.9 5.1 90.7 5.1 C 91.5 5.1 91.9 5.2 93.5 5.2 C 93.5 5.2 93.5 5.2 93.5 5.2 Z M 65.1 2.8 C 63.6 2.8 61.2 3.1 60.6 3.1 C 60.0 3.1 58.0 2.9 57.0 3.0 C 56.0 3.0 55.7 3.2 54.1 3.3 C 52.1 3.3 50.8 3.1 50.7 3.1 C 50.4 3.0 49.5 2.7 48.1 2.8 C 46.3 2.9 45.8 2.7 45.0 2.8 C 43.6 3.1 43.5 2.8 42.4 2.8 C 41.3 2.9 40.7 2.8 39.8 2.9 C 38.9 3.1 38.3 2.8 37.4 2.8 C 36.1 2.8 36.2 5.2 37.5 5.2 C 38.2 5.2 38.9 5.0 39.7 5.0 C 40.5 5.0 41.2 5.0 42.0 5.1 C 42.8 5.2 44.4 5.1 45.7 5.1 C 47.0 5.2 49.2 5.3 50.7 5.3 C 52.2 5.2 53.1 4.6 56.2 5.0 C 57.2 5.1 59.2 5.0 60.0 5.0 C 61.4 5.0 64.1 5.2 65.3 5.2 C 66.7 5.2 66.6 2.8 65.1 2.8 C 65.1 2.8 65.1 2.8 65.1 2.8 Z M 37.2 5.2 C 38.4 5.2 38.4 2.8 37.1 2.8 C 35.6 2.8 32.4 3.2 31.6 3.2 C 30.8 3.1 28.5 2.7 27.7 2.7 C 27.0 2.7 23.5 3.4 22.0 3.2 C 20.5 3.0 20.0 3.1 19.0 3.1 C 17.9 3.1 16.3 3.2 15.3 3.3 C 14.3 3.3 13.4 2.7 12.1 2.8 C 10.8 3.0 10.1 2.8 9.2 2.8 C 7.8 2.8 7.9 5.2 9.2 5.2 C 10.5 5.2 11.4 5.4 12.5 5.3 C 13.6 5.3 14.5 5.0 15.6 5.3 C 16.6 5.5 18.6 5.3 19.9 5.1 C 21.1 4.9 22.5 5.0 23.5 5.1 C 25.4 5.3 30.2 4.9 30.9 5.1 C 31.5 5.3 33.7 5.1 34.5 5.1 C 35.2 5.1 35.6 5.2 37.2 5.2 C 37.2 5.2 37.2 5.2 37.2 5.2 Z M 4.3 5.9 C 4.3 5.9 4.3 5.9 4.3 5.9 C 4.3 5.9 4.3 5.9 4.3 5.9 C 4.3 5.9 4.3 5.9 4.3 5.9 C 4.3 5.9 4.3 5.9 4.3 5.9 C 4.3 5.9 4.3 5.9 4.3 5.9 C 4.3 5.9 4.3 5.9 4.3 5.9 C 4.3 5.9 6.2 4.0 6.2 4.0 C 6.2 4.0 6.2 4.0 6.2 4.0 C 6.2 4.0 6.2 4.0 6.2 4.0 C 6.2 4.0 6.2 4.0 6.2 4.0 C 6.2 4.0 6.2 4.0 6.2 4.0 C 6.2 4.0 6.2 4.0 6.2 4.0 C 6.2 4.0 6.2 4.0 6.2 4.0 C 6.2 4.0 6.2 4.0 6.2 4.0 C 6.2 4.0 6.2 4.0 6.2 4.0 C 6.2 4.0 6.2 4.0 6.2 4.0 C 6.2 4.0 6.2 4.0 6.2 4.0 C 6.2 4.0 6.2 4.0 6.2 4.0 C 6.1 4.0 6.1 4.0 6.1 4.0 C 6.1 4.0 6.0 4.0 6.0 4.0 C 5.8 4.0 5.4 4.0 4.7 4.0 C 4.1 4.0 3.5 4.0 3.0 4.0 C 2.8 4.0 2.7 4.0 2.5 4.0 C 2.5 4.0 2.5 4.0 2.5 4.0 C 2.5 4.0 2.4 4.0 2.4 4.0 C 2.4 4.0 2.4 4.0 2.4 4.0 C 2.4 4.0 2.4 4.0 2.4 4.0 C 2.4 4.0 2.4 4.0 2.4 4.0 C 2.4 4.0 2.4 4.0 2.4 4.0 C 2.4 4.0 2.4 4.0 2.4 4.0 C 2.4 4.0 2.4 4.0 2.4 4.0 C 2.4 4.0 2.4 4.0 2.4 4.0 C 2.4 4.0 2.4 4.0 2.4 4.0 C 2.4 4.0 4.3 2.1 4.3 2.1 C 4.3 2.1 4.3 2.1 4.3 2.1 C 4.3 2.1 4.3 2.1 4.3 2.1 C 4.3 2.1 4.3 2.1 4.3 2.1 C 4.3 2.1 4.3 2.1 4.3 2.1 C 4.3 2.1 4.3 2.1 4.3 2.1 C 4.3 2.1 4.3 2.1 4.3 2.1 C 4.3 2.1 4.3 2.1 4.3 2.1 C 4.3 2.1 4.3 2.1 4.3 2.1 C 4.3 2.1 4.3 2.8 4.3 2.8 C 4.3 2.8 4.3 5.2 4.3 5.2 C 4.3 5.2 4.3 5.9 4.3 5.9 C 4.3 5.9 4.3 5.9 4.3 5.9 Z M 4.3 2.1 C 4.3 2.1 4.3 2.7 4.3 4.0 C 4.3 5.3 4.3 6.0 4.3 6.0 C 4.3 6.0 4.3 5.2 4.3 5.2 C 4.3 5.3 4.3 2.8 4.3 2.8 C 4.3 2.8 4.3 2.1 4.3 2.1 C 4.3 2.1 4.3 2.1 4.3 2.1 Z M 4.3 2.1 " fill="#E1E1E2"></path></g></svg>