<?xml version="1.0" encoding="UTF-8" standalone="no"?><svg xmlns="http://www.w3.org/2000/svg" xmlns:xlink="http://www.w3.org/1999/xlink" clip-rule="evenodd" stroke-miterlimit="10" viewBox="0 0 276 8"><desc>SVG generated by Keynote</desc><defs></defs><g transform="matrix(1.00, 0.00, -0.00, -1.00, 0.0, 8.0)"><path d="M 5.3 2.1 C 4.4 2.1 3.2 2.2 3.0 3.6 C 2.9 4.9 3.8 5.9 5.2 5.9 C 6.6 5.9 6.2 5.2 9.4 5.2 C 10.5 5.2 10.6 2.8 9.4 2.8 C 6.6 2.8 7.0 2.1 5.3 2.1 C 5.3 2.1 5.3 2.1 5.3 2.1 Z M 5.4 2.1 C 3.8 2.1 3.1 2.7 3.1 4.0 C 3.0 5.3 4.0 6.0 5.4 6.0 C 6.9 6.0 6.8 5.2 9.3 5.2 C 10.6 5.3 10.4 2.8 9.3 2.8 C 6.7 2.8 7.1 2.1 5.4 2.1 C 5.4 2.1 5.4 2.1 5.4 2.1 Z M 9.5 2.8 C 8.3 2.8 8.3 5.2 9.7 5.2 C 11.1 5.2 14.2 4.8 15.0 4.8 C 15.8 4.9 18.1 5.4 18.8 5.4 C 19.5 5.4 23.0 4.6 24.5 4.8 C 25.9 5.0 26.4 4.9 27.4 4.9 C 28.4 4.9 30.0 4.8 31.0 4.7 C 32.0 4.7 32.8 5.3 34.1 5.2 C 35.4 5.0 36.0 5.2 36.9 5.2 C 38.3 5.2 38.2 2.8 36.9 2.8 C 35.7 2.8 34.8 2.6 33.7 2.7 C 32.7 2.7 31.7 3.0 30.7 2.7 C 29.7 2.5 27.7 2.7 26.5 2.9 C 25.3 3.1 23.9 3.0 23.0 2.9 C 21.0 2.7 16.4 3.1 15.7 2.9 C 15.1 2.7 13.0 2.9 12.2 2.9 C 11.5 2.9 11.0 2.8 9.5 2.8 C 9.5 2.8 9.5 2.8 9.5 2.8 Z M 64.4 5.2 C 65.7 5.2 65.9 2.8 64.4 2.8 C 62.9 2.8 60.1 3.0 59.3 3.0 C 58.5 2.9 55.1 2.8 54.4 2.8 C 53.7 2.8 51.1 3.1 49.7 2.9 C 48.2 2.7 46.7 3.1 45.7 3.0 C 44.5 2.9 43.8 3.0 42.8 3.0 C 41.9 3.1 40.4 2.6 39.5 2.8 C 38.7 3.0 38.3 2.8 37.1 2.8 C 36.0 2.8 36.0 5.2 37.1 5.2 C 38.1 5.2 39.1 5.2 40.1 5.1 C 41.2 5.1 42.5 5.0 43.7 5.0 C 44.7 5.0 46.3 5.3 47.5 5.2 C 48.7 5.0 50.5 5.0 51.2 4.9 C 52.1 4.9 54.0 5.0 54.8 4.8 C 55.9 4.7 57.7 4.9 58.4 5.1 C 59.0 5.3 59.5 5.0 60.9 5.1 C 61.8 5.1 63.1 5.2 64.4 5.2 C 64.4 5.2 64.4 5.2 64.4 5.2 Z M 64.8 5.2 C 66.3 5.2 68.7 4.9 69.3 4.9 C 69.9 4.9 71.9 5.1 72.8 5.0 C 73.7 5.0 74.0 4.8 75.6 4.7 C 77.6 4.7 78.9 4.9 78.9 4.9 C 79.2 5.0 80.2 5.3 81.5 5.2 C 83.3 5.1 83.8 5.3 84.6 5.2 C 85.9 4.9 86.1 5.2 87.1 5.2 C 88.1 5.1 88.8 5.2 89.6 5.1 C 90.5 4.9 91.2 5.2 92.0 5.2 C 93.3 5.2 93.2 2.8 91.9 2.8 C 91.2 2.8 90.5 3.0 89.7 3.0 C 89.0 3.0 88.3 3.0 87.5 2.9 C 86.7 2.8 85.1 2.9 83.8 2.9 C 82.5 2.8 80.4 2.7 79.0 2.7 C 77.5 2.8 76.6 3.4 73.5 3.0 C 72.6 2.9 70.6 3.0 69.9 3.0 C 68.5 3.0 65.8 2.8 64.7 2.8 C 63.3 2.8 63.3 5.2 64.8 5.2 C 64.8 5.2 64.8 5.2 64.8 5.2 Z M 119.5 5.2 C 120.8 5.2 121.0 2.8 119.5 2.8 C 118.0 2.8 115.3 3.0 114.4 3.0 C 113.6 2.9 110.2 2.8 109.5 2.8 C 108.8 2.8 106.3 3.1 104.8 2.9 C 103.3 2.7 101.8 3.1 100.8 3.0 C 99.6 2.9 98.9 3.0 97.9 3.0 C 97.0 3.1 95.5 2.6 94.7 2.8 C 93.8 3.0 93.4 2.8 92.2 2.8 C 91.1 2.8 91.1 5.2 92.2 5.2 C 93.2 5.2 94.2 5.2 95.2 5.1 C 96.3 5.1 97.6 5.0 98.8 5.0 C 99.8 5.0 101.4 5.3 102.6 5.2 C 103.8 5.0 105.6 5.0 106.3 4.9 C 107.2 4.9 109.1 5.0 109.9 4.8 C 111.0 4.7 112.8 4.9 113.5 5.1 C 114.1 5.3 114.6 5.0 116.0 5.1 C 116.9 5.1 118.3 5.2 119.5 5.2 C 119.5 5.2 119.5 5.2 119.5 5.2 Z M 119.9 5.2 C 121.4 5.2 123.8 4.9 124.4 4.9 C 125.0 4.9 127.0 5.1 127.9 5.0 C 128.8 5.0 129.1 4.8 130.7 4.7 C 132.7 4.7 134.0 4.9 134.1 4.9 C 134.3 5.0 135.3 5.3 136.6 5.2 C 138.4 5.1 138.9 5.3 139.7 5.2 C 141.0 4.9 141.2 5.2 142.2 5.2 C 143.2 5.1 143.9 5.2 144.7 5.1 C 145.6 4.9 146.3 5.2 147.1 5.2 C 148.4 5.2 148.3 2.8 147.0 2.8 C 146.3 2.8 145.6 3.0 144.8 3.0 C 144.1 3.0 143.4 3.0 142.6 2.9 C 141.8 2.8 140.2 2.9 138.9 2.9 C 137.6 2.8 135.5 2.7 134.1 2.7 C 132.6 2.8 131.7 3.4 128.7 3.0 C 127.7 2.9 125.8 3.0 125.0 3.0 C 123.6 3.0 120.9 2.8 119.8 2.8 C 118.4 2.8 118.4 5.2 119.9 5.2 C 119.9 5.2 119.9 5.2 119.9 5.2 Z M 174.6 5.2 C 175.9 5.2 176.1 2.8 174.6 2.8 C 173.1 2.8 170.4 3.0 169.5 3.0 C 168.7 2.9 165.3 2.8 164.6 2.8 C 163.9 2.8 161.4 3.1 159.9 2.9 C 158.4 2.7 157.0 3.1 155.9 3.0 C 154.7 2.9 154.0 3.0 153.0 3.0 C 152.1 3.1 150.6 2.6 149.8 2.8 C 148.9 3.0 148.5 2.8 147.3 2.8 C 146.2 2.8 146.2 5.2 147.3 5.2 C 148.4 5.2 149.3 5.2 150.3 5.1 C 151.4 5.1 152.7 5.0 153.9 5.0 C 154.9 5.0 156.5 5.3 157.7 5.2 C 159.0 5.0 160.7 5.0 161.4 4.9 C 162.3 4.9 164.2 5.0 165.1 4.8 C 166.1 4.7 167.9 4.9 168.6 5.1 C 169.2 5.3 169.7 5.0 171.1 5.1 C 172.0 5.1 173.4 5.2 174.6 5.2 C 174.6 5.2 174.6 5.2 174.6 5.2 Z M 174.8 2.8 C 173.7 2.8 173.6 5.2 175.0 5.2 C 176.4 5.2 179.5 4.8 180.3 4.8 C 181.2 4.9 183.4 5.4 184.1 5.4 C 184.9 5.4 188.3 4.6 189.8 4.8 C 191.3 5.0 191.7 4.9 192.7 4.9 C 193.7 4.9 195.3 4.8 196.3 4.7 C 197.3 4.7 198.2 5.3 199.4 5.2 C 200.7 5.0 201.4 5.2 202.2 5.2 C 203.7 5.2 203.6 2.8 202.3 2.8 C 201.0 2.8 200.1 2.6 199.1 2.7 C 198.0 2.7 197.1 3.0 196.1 2.7 C 195.0 2.5 193.1 2.7 191.8 2.9 C 190.6 3.1 189.3 3.0 188.3 2.9 C 186.4 2.7 181.7 3.1 181.1 2.9 C 180.4 2.7 178.3 2.9 177.5 2.9 C 176.8 2.9 176.4 2.8 174.8 2.8 C 174.8 2.8 174.8 2.8 174.8 2.8 Z M 202.6 5.2 C 204.1 5.2 206.5 4.9 207.1 4.9 C 207.6 4.9 209.6 5.1 210.6 5.0 C 211.5 5.0 211.8 4.8 213.4 4.7 C 215.3 4.7 216.6 4.9 216.7 4.9 C 217.0 5.0 217.9 5.3 219.3 5.2 C 221.0 5.1 221.6 5.3 222.4 5.2 C 223.7 4.9 223.8 5.2 224.9 5.2 C 225.9 5.1 226.5 5.2 227.4 5.1 C 228.3 4.9 228.9 5.2 229.8 5.2 C 231.1 5.2 230.9 2.8 229.7 2.8 C 229.0 2.8 228.3 3.0 227.5 3.0 C 226.7 3.0 226.0 3.0 225.3 2.9 C 224.5 2.8 222.9 2.9 221.6 2.9 C 220.3 2.8 218.2 2.7 216.7 2.7 C 215.2 2.8 214.3 3.4 211.3 3.0 C 210.4 2.9 208.4 3.0 207.6 3.0 C 206.2 3.0 203.6 2.8 202.4 2.8 C 201.1 2.8 201.1 5.2 202.6 5.2 C 202.6 5.2 202.6 5.2 202.6 5.2 Z M 257.3 5.2 C 258.6 5.2 258.8 2.8 257.3 2.8 C 255.8 2.8 253.0 3.0 252.2 3.0 C 251.4 2.9 248.0 2.8 247.3 2.8 C 246.6 2.8 244.0 3.1 242.5 2.9 C 241.1 2.7 239.6 3.1 238.6 3.0 C 237.3 2.9 236.7 3.0 235.7 3.0 C 234.7 3.1 233.2 2.6 232.4 2.8 C 231.6 3.0 231.1 2.8 230.0 2.8 C 228.9 2.8 228.9 5.2 229.9 5.2 C 231.0 5.2 231.9 5.2 233.0 5.1 C 234.1 5.1 235.4 5.0 236.5 5.0 C 237.6 5.0 239.2 5.3 240.4 5.2 C 241.6 5.0 243.4 5.0 244.1 4.9 C 245.0 4.9 246.9 5.0 247.7 4.8 C 248.8 4.7 250.6 4.9 251.2 5.1 C 251.9 5.3 252.4 5.0 253.8 5.1 C 254.7 5.1 256.0 5.2 257.3 5.2 C 257.3 5.2 257.3 5.2 257.3 5.2 Z M 257.7 5.2 C 259.2 5.2 261.6 4.9 262.2 4.9 C 262.8 4.9 264.7 5.1 265.7 5.0 C 266.6 5.0 266.9 4.8 268.5 4.7 C 269.5 4.7 270.3 4.7 270.9 4.8 C 270.9 4.8 271.0 4.8 271.1 4.8 C 271.1 4.8 271.1 4.8 271.2 4.8 C 271.2 4.8 271.2 4.8 271.2 4.8 C 271.2 4.8 271.2 4.8 271.2 4.8 C 271.2 4.8 271.2 4.8 271.2 4.8 C 271.2 4.8 271.2 4.8 271.2 4.8 C 271.2 4.8 271.2 4.8 271.2 4.8 C 271.2 4.8 271.2 4.8 271.2 4.8 C 271.2 4.8 271.2 3.2 271.2 3.2 C 271.2 3.2 271.2 3.2 271.2 3.2 C 271.2 3.2 271.2 3.2 271.2 3.2 C 271.2 3.2 271.2 3.2 271.2 3.2 C 271.2 3.2 271.2 3.2 271.2 3.2 C 271.2 3.2 271.2 3.2 271.2 3.2 C 271.2 3.2 271.2 3.2 271.2 3.2 C 271.2 3.2 271.2 3.2 271.2 3.2 C 271.2 3.2 271.2 3.2 271.2 3.2 C 271.2 3.2 271.2 3.2 271.2 3.2 C 271.1 3.1 271.0 3.1 270.9 3.1 C 270.8 3.1 270.7 3.1 270.6 3.1 C 270.4 3.0 269.4 2.7 268.1 2.8 C 266.3 2.9 265.8 2.7 265.0 2.8 C 263.6 3.1 263.5 2.8 262.5 2.9 C 261.5 2.9 260.8 2.8 260.0 2.9 C 259.1 3.1 258.4 2.8 257.6 2.8 C 256.3 2.8 256.4 5.2 257.6 5.2 C 258.4 5.2 259.1 5.0 259.8 5.0 C 260.6 5.0 261.3 5.0 262.1 5.1 C 262.9 5.2 264.5 5.1 265.8 5.1 C 267.0 5.2 269.2 5.3 270.6 5.3 C 270.8 5.3 271.0 5.2 271.2 5.2 C 271.2 5.2 271.2 5.2 271.2 5.2 C 271.2 5.2 271.2 5.2 271.2 5.2 C 271.2 5.2 271.2 5.2 271.2 5.2 C 271.2 5.2 271.2 5.2 271.2 5.2 C 271.2 5.2 271.2 5.2 271.2 5.2 C 271.2 5.2 271.2 5.2 271.2 5.2 C 271.2 5.2 271.2 5.2 271.2 5.2 C 271.2 5.2 271.2 5.2 271.2 5.2 C 271.2 5.2 271.2 2.8 271.2 2.8 C 271.2 2.8 271.2 2.8 271.2 2.8 C 271.2 2.8 271.2 2.8 271.2 2.8 C 271.2 2.8 271.2 2.8 271.2 2.8 C 271.2 2.8 271.2 2.8 271.2 2.8 C 271.2 2.8 271.2 2.8 271.2 2.8 C 271.2 2.8 271.2 2.8 271.2 2.8 C 271.2 2.8 271.2 2.8 271.2 2.8 C 271.1 2.8 271.1 2.8 271.0 2.8 C 271.0 2.8 270.9 2.8 270.8 2.8 C 270.4 2.9 270.1 3.0 269.7 3.0 C 268.9 3.1 267.9 3.2 266.4 3.0 C 265.5 2.9 263.5 3.0 262.7 3.0 C 261.4 3.0 258.7 2.8 257.6 2.8 C 256.2 2.8 256.2 5.2 257.7 5.2 C 257.7 5.2 257.7 5.2 257.7 5.2 Z M 230.1 2.8 C 228.8 2.8 228.5 5.2 230.1 5.2 C 231.6 5.2 234.3 5.0 235.1 5.1 C 236.0 5.1 239.4 5.3 240.1 5.3 C 240.8 5.3 243.3 4.9 244.8 5.1 C 246.3 5.3 247.7 4.9 248.7 5.0 C 250.0 5.1 250.7 5.0 251.7 5.0 C 252.6 4.9 254.1 5.4 254.9 5.2 C 255.7 5.0 256.2 5.2 257.4 5.2 C 258.5 5.2 258.5 2.8 257.4 2.8 C 256.3 2.8 255.4 2.8 254.3 2.9 C 253.3 2.9 252.0 3.0 250.8 3.0 C 249.8 3.0 248.2 2.7 247.0 2.8 C 245.7 3.0 244.0 3.1 243.2 3.1 C 242.4 3.1 240.5 3.0 239.6 3.2 C 238.6 3.3 236.8 3.1 236.1 2.9 C 235.5 2.7 235.0 3.0 233.6 2.9 C 232.7 2.9 231.3 2.8 230.1 2.8 C 230.1 2.8 230.1 2.8 230.1 2.8 Z M 229.7 2.8 C 228.2 2.8 225.8 3.1 225.2 3.1 C 224.6 3.1 222.6 2.9 221.7 3.0 C 220.8 3.0 220.4 3.2 218.9 3.3 C 216.9 3.3 215.6 3.1 215.5 3.1 C 215.2 3.0 214.3 2.7 213.0 2.8 C 211.2 2.9 210.7 2.7 209.9 2.8 C 208.5 3.1 208.4 2.8 207.4 2.9 C 206.3 2.9 205.7 2.8 204.9 2.9 C 204.0 3.1 203.3 2.8 202.5 2.8 C 201.2 2.8 201.3 5.2 202.5 5.2 C 203.3 5.2 204.0 5.0 204.7 5.0 C 205.5 5.0 206.2 5.0 207.0 5.1 C 207.8 5.2 209.4 5.1 210.7 5.1 C 211.9 5.2 214.0 5.3 215.5 5.3 C 217.0 5.2 217.9 4.6 220.9 5.0 C 221.9 5.1 223.8 5.0 224.6 5.0 C 226.0 5.0 228.7 5.2 229.8 5.2 C 231.2 5.2 231.1 2.8 229.7 2.8 C 229.7 2.8 229.7 2.8 229.7 2.8 Z M 174.9 2.8 C 173.7 2.8 173.4 5.2 174.9 5.2 C 176.4 5.2 179.2 5.0 180.0 5.1 C 180.8 5.1 184.2 5.3 185.0 5.3 C 185.7 5.3 188.2 4.9 189.7 5.1 C 191.2 5.3 192.6 4.9 193.6 5.0 C 194.9 5.1 195.6 5.0 196.5 5.0 C 197.5 4.9 199.0 5.4 199.8 5.2 C 200.6 5.0 201.1 5.2 202.2 5.2 C 203.4 5.2 203.4 2.8 202.3 2.8 C 201.2 2.8 200.3 2.8 199.2 2.9 C 198.2 2.9 196.9 3.0 195.7 3.0 C 194.6 3.0 193.1 2.7 191.8 2.8 C 190.6 3.0 188.8 3.1 188.1 3.1 C 187.2 3.1 185.3 3.0 184.5 3.2 C 183.5 3.3 181.7 3.1 181.0 2.9 C 180.3 2.7 179.9 3.0 178.4 2.9 C 177.6 2.9 176.2 2.8 174.9 2.8 C 174.9 2.8 174.9 2.8 174.9 2.8 Z M 174.8 5.2 C 175.9 5.2 175.9 2.8 174.6 2.8 C 173.2 2.8 170.0 3.2 169.2 3.2 C 168.4 3.1 166.2 2.7 165.4 2.7 C 164.7 2.7 161.3 3.4 159.8 3.2 C 158.3 3.0 157.9 3.1 156.9 3.1 C 155.9 3.1 154.2 3.2 153.3 3.3 C 152.3 3.3 151.4 2.7 150.2 2.9 C 148.9 3.0 148.2 2.8 147.3 2.8 C 145.9 2.8 146.0 5.2 147.3 5.2 C 148.6 5.2 149.4 5.4 150.5 5.3 C 151.6 5.3 152.5 5.0 153.5 5.3 C 154.5 5.5 156.5 5.3 157.7 5.1 C 159.0 5.0 160.3 5.0 161.3 5.1 C 163.2 5.3 167.9 4.9 168.5 5.1 C 169.2 5.3 171.3 5.1 172.1 5.1 C 172.8 5.1 173.2 5.2 174.8 5.2 C 174.8 5.2 174.8 5.2 174.8 5.2 Z M 147.0 2.8 C 145.5 2.8 143.1 3.1 142.5 3.1 C 141.9 3.1 140.0 2.9 139.0 3.0 C 138.1 3.0 137.8 3.2 136.2 3.3 C 134.2 3.3 133.0 3.1 132.9 3.1 C 132.6 3.0 131.6 2.7 130.3 2.8 C 128.5 2.9 128.0 2.7 127.2 2.8 C 125.9 3.1 125.7 2.8 124.7 2.9 C 123.7 2.9 123.0 2.8 122.2 2.9 C 121.3 3.1 120.7 2.8 119.8 2.8 C 118.5 2.8 118.6 5.2 119.9 5.2 C 120.6 5.2 121.3 5.0 122.1 5.0 C 122.9 5.0 123.5 5.0 124.3 5.1 C 125.1 5.2 126.7 5.1 128.0 5.1 C 129.3 5.2 131.4 5.3 132.9 5.3 C 134.3 5.2 135.2 4.6 138.3 5.0 C 139.2 5.1 141.2 5.0 142.0 5.0 C 143.3 5.0 146.0 5.2 147.1 5.2 C 148.5 5.2 148.5 2.8 147.0 2.8 C 147.0 2.8 147.0 2.8 147.0 2.8 Z M 92.3 2.8 C 91.0 2.8 90.8 5.2 92.3 5.2 C 93.8 5.2 96.6 5.0 97.4 5.1 C 98.2 5.1 101.6 5.3 102.3 5.3 C 103.0 5.3 105.6 4.9 107.0 5.1 C 108.5 5.3 110.0 4.9 111.0 5.0 C 112.2 5.1 112.9 5.0 113.9 5.0 C 114.9 4.9 116.3 5.4 117.2 5.2 C 118.0 5.0 118.4 5.2 119.6 5.2 C 120.7 5.2 120.7 2.8 119.6 2.8 C 118.6 2.8 117.6 2.8 116.6 2.9 C 115.5 2.9 114.2 3.0 113.0 3.0 C 112.0 3.0 110.4 2.7 109.2 2.8 C 108.0 3.0 106.2 3.1 105.5 3.1 C 104.6 3.1 102.7 3.0 101.9 3.2 C 100.8 3.3 99.0 3.1 98.3 2.9 C 97.7 2.7 97.2 3.0 95.8 2.9 C 94.9 2.9 93.6 2.8 92.3 2.8 C 92.3 2.8 92.3 2.8 92.3 2.8 Z M 91.9 2.8 C 90.4 2.8 88.0 3.1 87.4 3.1 C 86.8 3.1 84.8 2.9 83.9 3.0 C 83.0 3.0 82.7 3.2 81.1 3.3 C 79.1 3.3 77.8 3.1 77.8 3.1 C 77.5 3.0 76.5 2.7 75.2 2.8 C 73.4 2.9 72.9 2.7 72.1 2.8 C 70.8 3.1 70.6 2.8 69.6 2.9 C 68.6 2.9 67.9 2.8 67.1 2.9 C 66.2 3.1 65.5 2.8 64.7 2.8 C 63.4 2.8 63.5 5.2 64.8 5.2 C 65.5 5.2 66.2 5.0 67.0 5.0 C 67.7 5.0 68.4 5.0 69.2 5.1 C 70.0 5.2 71.6 5.1 72.9 5.1 C 74.2 5.2 76.3 5.3 77.7 5.3 C 79.2 5.2 80.1 4.6 83.2 5.0 C 84.1 5.1 86.1 5.0 86.8 5.0 C 88.2 5.0 90.9 5.2 92.0 5.2 C 93.4 5.2 93.4 2.8 91.9 2.8 C 91.9 2.8 91.9 2.8 91.9 2.8 Z M 64.5 5.2 C 65.7 5.2 65.7 2.8 64.4 2.8 C 62.9 2.8 59.8 3.2 59.0 3.2 C 58.2 3.1 55.9 2.7 55.2 2.7 C 54.5 2.7 51.1 3.4 49.6 3.2 C 48.1 3.0 47.7 3.1 46.7 3.1 C 45.6 3.1 44.0 3.2 43.1 3.3 C 42.1 3.3 41.2 2.7 39.9 2.9 C 38.7 3.0 38.0 2.8 37.1 2.8 C 35.7 2.8 35.8 5.2 37.1 5.2 C 38.4 5.2 39.2 5.4 40.3 5.3 C 41.4 5.3 42.3 5.0 43.3 5.3 C 44.3 5.5 46.3 5.3 47.5 5.1 C 48.7 5.0 50.1 5.0 51.1 5.1 C 53.0 5.3 57.6 4.9 58.3 5.1 C 59.0 5.3 61.1 5.1 61.8 5.1 C 62.6 5.1 63.0 5.2 64.5 5.2 C 64.5 5.2 64.5 5.2 64.5 5.2 Z M 36.8 2.8 C 35.3 2.8 32.9 3.1 32.3 3.1 C 31.7 3.1 29.7 2.9 28.8 3.0 C 27.9 3.0 27.6 3.2 26.0 3.3 C 24.0 3.3 22.7 3.1 22.6 3.1 C 22.4 3.0 21.4 2.7 20.1 2.8 C 18.3 2.9 17.8 2.7 17.0 2.8 C 15.7 3.1 15.5 2.8 14.5 2.9 C 13.5 2.9 12.8 2.8 12.0 2.9 C 11.1 3.1 10.4 2.8 9.6 2.8 C 8.3 2.8 8.4 5.2 9.7 5.2 C 10.4 5.2 11.1 5.0 11.9 5.0 C 12.6 5.0 13.3 5.0 14.1 5.1 C 14.9 5.2 16.5 5.1 17.8 5.1 C 19.1 5.2 21.2 5.3 22.6 5.3 C 24.1 5.2 25.0 4.6 28.0 5.0 C 29.0 5.1 30.9 5.0 31.7 5.0 C 33.1 5.0 35.8 5.2 36.9 5.2 C 38.3 5.2 38.3 2.8 36.8 2.8 C 36.8 2.8 36.8 2.8 36.8 2.8 Z M 36.8 2.8 " fill="#E1E1E2"></path></g></svg>