<?xml version="1.0" encoding="UTF-8" standalone="no"?><svg xmlns="http://www.w3.org/2000/svg" xmlns:xlink="http://www.w3.org/1999/xlink" clip-rule="evenodd" stroke-miterlimit="10" viewBox="0 0 348 198"><desc>SVG generated by Keynote</desc><defs></defs><g transform="matrix(1.00, 0.00, -0.00, -1.00, 0.0, 198.0)"><g><clipPath id="clip0x610000eaf060"><path d="M 2.0 197.0 L 347.0 197.0 L 347.0 1.0 L 2.0 1.0 Z M 1.9 196.8 "></path></clipPath><g clip-path="url(#clip0x610000eaf060)"><g><clipPath id="clip0x610000eaf240"><path d="M 33.4 12.9 C 18.4 34.0 1.0 87.0 3.9 102.6 C 5.1 109.1 6.1 110.1 14.4 112.5 C 19.5 114.0 24.0 116.2 24.4 117.5 C 25.8 121.7 18.8 122.3 10.9 118.7 C 6.6 116.8 2.6 115.6 2.1 116.2 C 0.9 117.4 4.7 119.2 32.5 130.7 C 52.1 138.8 56.1 139.8 63.2 138.5 C 76.8 136.0 86.4 136.8 103.9 142.0 C 128.4 149.4 154.2 156.4 171.1 160.4 C 179.3 162.3 193.0 166.4 201.8 169.5 C 210.5 172.5 220.7 175.6 224.5 176.2 C 231.4 177.4 259.9 185.4 270.9 189.3 C 280.1 192.5 301.8 196.7 309.7 196.8 C 313.6 196.8 321.7 194.7 327.5 192.1 C 336.9 188.0 338.7 186.2 342.6 177.3 C 348.0 165.0 348.0 164.7 343.0 150.3 C 339.2 139.3 331.4 129.9 325.9 129.7 C 324.6 129.7 321.1 127.6 318.0 125.2 C 314.9 122.7 308.9 119.5 304.5 118.1 C 300.2 116.7 286.6 110.7 274.5 104.8 C 262.3 98.9 251.9 94.1 251.4 94.1 C 250.5 94.1 205.0 72.4 167.2 53.9 C 157.9 49.4 147.2 43.0 143.4 39.6 C 139.6 36.2 133.4 31.8 129.6 29.9 C 93.3 11.2 96.4 12.3 90.8 16.0 C 85.8 19.2 85.1 19.2 72.5 14.0 C 65.3 11.1 56.2 7.0 52.2 4.9 C 48.3 2.9 44.3 1.2 43.3 1.2 C 42.4 1.3 37.9 6.5 33.4 12.9 "></path></clipPath><g clip-path="url(#clip0x610000eaf240)"><image xlink:href="C0482DEBAA945C0E456AFFF6D9B512AC.png" width="206.00" height="134.00" transform="matrix(1.98, 0.00, -0.00, -1.98, -28.5, 230.5)"></image></g></g></g></g></g></svg>